# Blender v2.93.4 OBJ File: ''
# www.blender.org
mtllib tongue_symV2.mtl
o TONGUE.002
v 0.000231 -0.046491 0.010710
v 0.002927 -0.046573 0.010652
v 0.002823 -0.046612 0.016127
v 0.000089 -0.046576 0.016180
v 0.006689 -0.045781 0.010867
v 0.006360 -0.045811 0.016348
v 0.006111 -0.045909 0.021329
v 0.002842 -0.046674 0.021105
v 0.000056 -0.046703 0.021347
v -0.006835 -0.045080 0.011292
v -0.002931 -0.046383 0.010812
v -0.002708 -0.046430 0.016294
v -0.006347 -0.045353 0.016773
v -0.002404 -0.046593 0.021280
v -0.005759 -0.045721 0.021755
v 0.000223 -0.046254 -0.001786
v 0.003852 -0.046321 -0.001903
v 0.003340 -0.046287 0.004647
v 0.000136 -0.046226 0.004729
v 0.008232 -0.045541 -0.001694
v 0.007378 -0.045507 0.004862
v -0.008257 -0.044371 -0.001164
v -0.003556 -0.046386 -0.001708
v -0.003181 -0.046243 0.004819
v -0.007455 -0.044656 0.005330
v 0.000318 -0.046284 -0.015817
v 0.005007 -0.046473 -0.015735
v 0.004248 -0.046613 -0.009014
v 0.000123 -0.046500 -0.008845
v 0.010600 -0.046052 -0.015541
v 0.009291 -0.046084 -0.008595
v -0.011341 -0.044399 -0.015024
v -0.005107 -0.046534 -0.015786
v -0.004165 -0.046746 -0.008794
v -0.009292 -0.044509 -0.008242
v 0.013435 -0.046790 -0.027351
v 0.011829 -0.046332 -0.021762
v 0.005759 -0.047252 -0.022047
v 0.006784 -0.047713 -0.027780
v 0.000298 -0.046874 -0.022305
v 0.000347 -0.047427 -0.028064
v -0.006393 -0.046249 -0.022030
v -0.007248 -0.046656 -0.028178
v -0.012818 -0.044394 -0.021458
v -0.013882 -0.045289 -0.027277
v 0.013835 -0.048160 -0.039388
v 0.014169 -0.047530 -0.033105
v 0.007368 -0.048153 -0.033699
v 0.007435 -0.048709 -0.040087
v 0.000402 -0.047943 -0.034491
v 0.000443 -0.048725 -0.040759
v -0.006943 -0.047462 -0.034122
v -0.006357 -0.048532 -0.040189
v -0.013639 -0.046766 -0.033600
v -0.012565 -0.048143 -0.039920
v 0.008855 -0.048418 -0.052406
v 0.012203 -0.048519 -0.046561
v 0.006865 -0.049295 -0.047227
v 0.004495 -0.049762 -0.052893
v 0.000560 -0.049691 -0.047443
v 0.000133 -0.049657 -0.052747
v 0.000135 -0.038186 -0.053485
v 0.004498 -0.045138 -0.054706
v 0.000243 -0.047788 -0.054342
v -0.005235 -0.044485 -0.054297
v -0.003193 -0.049642 -0.053044
v -0.008742 -0.048161 -0.052172
v -0.004909 -0.049403 -0.047459
v -0.011527 -0.048827 -0.046832
v 0.000187 -0.046927 0.029508
v -0.002153 -0.046841 0.029468
v -0.001927 -0.046849 0.025786
v 0.000253 -0.046906 0.025662
v -0.004464 -0.046201 0.028833
v -0.004857 -0.046165 0.026224
v 0.005023 -0.046307 0.029624
v 0.002459 -0.046860 0.029512
v 0.002781 -0.046823 0.025617
v 0.005650 -0.046117 0.025829
v 0.004140 -0.044793 0.034017
v 0.001109 -0.045042 0.034442
v 0.001678 -0.046328 0.032637
v 0.004266 -0.046046 0.032487
v -0.002231 -0.044825 0.034572
v -0.001039 -0.046270 0.032509
v 0.004296 -0.039535 0.032498
v 0.001955 -0.039465 0.032698
v 0.001406 -0.042543 0.034375
v 0.004141 -0.042443 0.034005
v -0.000013 -0.039449 0.032746
v 0.000036 -0.042332 0.034657
v 0.006814 -0.045339 0.032179
v 0.007473 -0.044158 0.032976
v 0.008247 -0.045020 0.029987
v 0.010375 -0.043408 0.030738
v 0.009463 -0.040055 0.030854
v 0.007168 -0.039859 0.032021
v 0.007336 -0.042241 0.033095
v 0.010379 -0.041672 0.031251
v 0.005032 -0.034597 0.025531
v 0.002168 -0.034311 0.025655
v 0.002156 -0.036681 0.029675
v 0.004646 -0.036852 0.029546
v 0.000107 -0.034340 0.025715
v -0.000013 -0.036734 0.029735
v 0.009619 -0.044473 0.026463
v 0.012648 -0.042554 0.027289
v 0.010784 -0.044027 0.022016
v 0.014378 -0.041820 0.022949
v 0.012031 -0.037151 0.024731
v 0.008617 -0.035517 0.025247
v 0.007752 -0.037509 0.029241
v 0.010690 -0.038755 0.028755
v 0.012666 -0.040571 0.028079
v 0.014375 -0.039431 0.023910
v 0.005519 -0.030463 0.015619
v 0.002123 -0.029923 0.015756
v 0.002129 -0.032159 0.020984
v 0.005282 -0.032587 0.020837
v 0.000073 -0.029828 0.015698
v 0.000119 -0.032127 0.020919
v 0.011577 -0.043723 0.017057
v 0.015644 -0.041274 0.018037
v 0.012298 -0.043412 0.011601
v 0.016707 -0.040552 0.012649
v 0.014044 -0.034202 0.014798
v 0.009885 -0.031863 0.015351
v 0.009267 -0.033774 0.020529
v 0.013070 -0.035789 0.019971
v 0.015673 -0.038516 0.019074
v 0.016809 -0.037367 0.013806
v 0.006432 -0.025594 0.004058
v 0.002909 -0.025289 0.003998
v 0.002241 -0.027548 0.010061
v 0.005870 -0.028004 0.010032
v -0.000018 -0.025312 0.004051
v 0.000027 -0.027457 0.009852
v 0.013225 -0.042690 0.005664
v 0.017823 -0.039150 0.006879
v 0.014289 -0.041912 -0.000795
v 0.019026 -0.037586 0.000609
v 0.016428 -0.029562 0.003730
v 0.011602 -0.026936 0.004136
v 0.010655 -0.029387 0.009981
v 0.015182 -0.031877 0.009539
v 0.018029 -0.035433 0.008338
v 0.019329 -0.033411 0.002336
v 0.008539 -0.022578 -0.009318
v 0.003439 -0.022054 -0.009140
v 0.002864 -0.023183 -0.002334
v 0.007288 -0.023482 -0.002321
v -0.000125 -0.022049 -0.008845
v -0.000091 -0.023254 -0.002005
v 0.015426 -0.041656 -0.007817
v 0.020361 -0.036627 -0.006283
v 0.016805 -0.041661 -0.014739
v 0.021873 -0.036626 -0.013271
v 0.019284 -0.027825 -0.010519
v 0.014263 -0.024541 -0.009738
v 0.012745 -0.025062 -0.002463
v 0.017723 -0.028005 -0.003090
v 0.020705 -0.032128 -0.004535
v 0.022268 -0.032101 -0.011780
v -0.000343 -0.022096 -0.022668
v -0.000242 -0.021848 -0.015884
v 0.004251 -0.022086 -0.016626
v 0.005205 -0.022703 -0.024109
v 0.010249 -0.023235 -0.017146
v 0.012177 -0.024761 -0.025078
v 0.024007 -0.038258 -0.026216
v 0.023317 -0.037309 -0.019831
v 0.018618 -0.042126 -0.020903
v 0.020166 -0.043224 -0.026769
v 0.023942 -0.033349 -0.018906
v 0.021353 -0.029607 -0.018157
v 0.024404 -0.033971 -0.025872
v 0.022518 -0.030858 -0.025658
v 0.016325 -0.025958 -0.017614
v 0.018469 -0.028139 -0.025494
v 0.015332 -0.031251 -0.039324
v 0.014851 -0.035299 -0.046140
v 0.007445 -0.032240 -0.045794
v 0.007156 -0.027515 -0.037851
v 0.012837 -0.038247 -0.050107
v 0.007959 -0.037776 -0.051978
v -0.000121 -0.031053 -0.044992
v -0.000212 -0.025864 -0.036362
v -0.000265 -0.023132 -0.029022
v 0.006285 -0.024341 -0.030903
v 0.014151 -0.027498 -0.032387
v 0.023924 -0.042862 -0.039028
v 0.024766 -0.041259 -0.032676
v 0.020666 -0.044589 -0.032798
v 0.019808 -0.045770 -0.039151
v 0.017793 -0.044554 -0.049257
v 0.013435 -0.046892 -0.051442
v 0.009650 -0.043961 -0.053650
v 0.015174 -0.042059 -0.050974
v 0.019979 -0.031150 -0.032785
v 0.020362 -0.034756 -0.039577
v 0.023234 -0.034334 -0.032676
v 0.023059 -0.037558 -0.039172
v 0.024825 -0.040078 -0.038668
v 0.022888 -0.042146 -0.043428
v 0.020917 -0.041090 -0.045107
v 0.021116 -0.044579 -0.045084
v 0.017285 -0.046774 -0.045988
v 0.018804 -0.038615 -0.045961
v 0.025153 -0.037805 -0.032638
v -0.001845 -0.041617 0.034194
v -0.003459 -0.042408 0.034270
v -0.001757 -0.039331 0.032770
v -0.003720 -0.039735 0.032836
v -0.009110 -0.043921 0.031515
v -0.006715 -0.045418 0.030424
v -0.003970 -0.045992 0.031984
v -0.005812 -0.044601 0.033384
v -0.006128 -0.042700 0.033723
v -0.009121 -0.042291 0.032158
v -0.006168 -0.040349 0.032680
v -0.008345 -0.040628 0.031720
v -0.013957 -0.041788 0.024124
v -0.010458 -0.043792 0.022844
v -0.008861 -0.044602 0.027195
v -0.011829 -0.042888 0.028310
v -0.002154 -0.036811 0.029829
v -0.004468 -0.037126 0.029911
v -0.002733 -0.034434 0.025809
v -0.005361 -0.034813 0.025915
v -0.011449 -0.037358 0.025848
v -0.013781 -0.039563 0.025172
v -0.011701 -0.041040 0.029178
v -0.009731 -0.039255 0.029740
v -0.007158 -0.037931 0.029933
v -0.008456 -0.035761 0.026012
v -0.016722 -0.039578 0.014034
v -0.012481 -0.042225 0.012504
v -0.011573 -0.043045 0.017920
v -0.015487 -0.040782 0.019313
v -0.003215 -0.032261 0.021145
v -0.006074 -0.032723 0.021268
v -0.003588 -0.029973 0.015942
v -0.006669 -0.030484 0.016128
v -0.013830 -0.033701 0.016408
v -0.016562 -0.036657 0.015468
v -0.015292 -0.038219 0.020528
v -0.012713 -0.035636 0.021320
v -0.009442 -0.033800 0.021446
v -0.010309 -0.031657 0.016456
v -0.019262 -0.036312 0.002399
v -0.014572 -0.039974 0.000348
v -0.013465 -0.041060 0.006676
v -0.017964 -0.037904 0.008442
v -0.003835 -0.027491 0.010304
v -0.007198 -0.027858 0.010656
v -0.004218 -0.025206 0.004312
v -0.007950 -0.025418 0.004847
v -0.016525 -0.029008 0.005956
v -0.019352 -0.032629 0.004558
v -0.017914 -0.034565 0.010214
v -0.015099 -0.031232 0.011363
v -0.011243 -0.029018 0.011259
v -0.012393 -0.026600 0.005723
v -0.022154 -0.035392 -0.011074
v -0.017377 -0.039692 -0.013473
v -0.015845 -0.039490 -0.006567
v -0.020662 -0.035400 -0.004235
v -0.005020 -0.023206 -0.001955
v -0.009229 -0.023533 -0.001303
v -0.006247 -0.022159 -0.008633
v -0.011110 -0.022805 -0.008033
v -0.019973 -0.027466 -0.008578
v -0.022522 -0.031364 -0.008593
v -0.020881 -0.031453 -0.001709
v -0.017987 -0.027609 -0.000849
v -0.014050 -0.024953 -0.000811
v -0.015665 -0.024596 -0.007914
v -0.019261 -0.040583 -0.019772
v -0.020605 -0.042167 -0.025989
v -0.023718 -0.036684 -0.017733
v -0.024846 -0.038687 -0.024260
v -0.016098 -0.025206 -0.023223
v -0.013683 -0.023591 -0.015579
v -0.007513 -0.022263 -0.015863
v -0.008733 -0.022979 -0.022787
v -0.024010 -0.031465 -0.023368
v -0.025655 -0.035102 -0.023538
v -0.024286 -0.032788 -0.016100
v -0.022165 -0.029026 -0.015149
v -0.018921 -0.025969 -0.015821
v -0.020861 -0.028152 -0.023294
v -0.009061 -0.032591 -0.044775
v -0.009303 -0.027824 -0.037871
v -0.008510 -0.038054 -0.051855
v -0.014278 -0.038627 -0.048604
v -0.016267 -0.035690 -0.044418
v -0.017292 -0.031328 -0.036871
v -0.020530 -0.044264 -0.032647
v -0.019341 -0.046172 -0.039227
v -0.025009 -0.041132 -0.030702
v -0.024126 -0.043461 -0.036810
v -0.017049 -0.027784 -0.029979
v -0.009476 -0.024777 -0.029258
v -0.011426 -0.043357 -0.052693
v -0.017239 -0.042161 -0.049622
v -0.014652 -0.046649 -0.049845
v -0.019625 -0.044694 -0.046371
v -0.022049 -0.031021 -0.030450
v -0.024800 -0.034276 -0.030395
v -0.021921 -0.034616 -0.037036
v -0.024398 -0.037589 -0.036528
v -0.017337 -0.047255 -0.045209
v -0.022111 -0.045132 -0.042335
v -0.024667 -0.042641 -0.040852
v -0.023129 -0.041338 -0.042967
v -0.025776 -0.040440 -0.035870
v -0.020615 -0.038873 -0.045235
v -0.026108 -0.037764 -0.030215
vt 0.232134 0.985008
vt 0.231140 0.981673
vt 0.238848 0.979814
vt 0.240031 0.982892
vt 0.229793 0.977156
vt 0.237228 0.975707
vt 0.243790 0.973734
vt 0.245762 0.977270
vt 0.247277 0.980010
vt 0.769267 0.978645
vt 0.768555 0.983281
vt 0.760854 0.982037
vt 0.761845 0.977784
vt 0.768002 0.986780
vt 0.760089 0.985284
vt 0.752829 0.983276
vt 0.753903 0.980308
vt 0.755206 0.976518
vt 0.214742 0.988473
vt 0.213622 0.984262
vt 0.222651 0.982954
vt 0.223642 0.986679
vt 0.212505 0.978843
vt 0.221452 0.978014
vt 0.786275 0.979499
vt 0.785902 0.985146
vt 0.776945 0.984233
vt 0.777460 0.979118
vt 0.785325 0.989631
vt 0.776451 0.988164
vt 0.196001 0.993546
vt 0.194697 0.987907
vt 0.204098 0.986112
vt 0.205392 0.990865
vt 0.194005 0.981163
vt 0.203091 0.980124
vt 0.804968 0.979965
vt 0.805027 0.986759
vt 0.795477 0.986103
vt 0.795689 0.979940
vt 0.804247 0.992712
vt 0.794767 0.991194
vt 0.178328 0.980873
vt 0.185986 0.981155
vt 0.186047 0.988688
vt 0.177401 0.988862
vt 0.186901 0.995674
vt 0.177126 0.996938
vt 0.822921 0.994891
vt 0.813305 0.994058
vt 0.813837 0.986744
vt 0.822794 0.986495
vt 0.813258 0.979143
vt 0.821463 0.978449
vt 0.161699 0.980188
vt 0.170407 0.980727
vt 0.168184 0.988443
vt 0.158102 0.986678
vt 0.166034 0.996501
vt 0.153994 0.993394
vt 0.844816 0.992371
vt 0.833530 0.994706
vt 0.832736 0.986247
vt 0.842891 0.984607
vt 0.830571 0.978491
vt 0.839628 0.977775
vt 0.144285 0.974656
vt 0.151886 0.978104
vt 0.147361 0.982107
vt 0.139698 0.976899
vt 0.142311 0.986442
vt 0.137134 0.980691
vt 0.134454 0.961144
vt 0.139245 0.970907
vt 0.133766 0.974250
vt 0.864001 0.975931
vt 0.858353 0.970829
vt 0.863967 0.962700
vt 0.860787 0.982090
vt 0.858506 0.977430
vt 0.853103 0.973780
vt 0.855765 0.986868
vt 0.852059 0.980801
vt 0.847375 0.975697
vt 0.741837 0.976659
vt 0.743819 0.974654
vt 0.747817 0.978030
vt 0.746484 0.980522
vt 0.746325 0.973206
vt 0.749356 0.974897
vt 0.253732 0.968288
vt 0.256265 0.969993
vt 0.251758 0.973938
vt 0.249484 0.971272
vt 0.258707 0.971234
vt 0.253658 0.976017
vt 0.256764 0.962961
vt 0.260071 0.962907
vt 0.259062 0.966060
vt 0.256226 0.965491
vt 0.263978 0.962447
vt 0.262264 0.966483
vt 0.254208 0.956859
vt 0.256616 0.955620
vt 0.259237 0.959710
vt 0.256191 0.960262
vt 0.258689 0.954535
vt 0.261620 0.959115
vt 0.253566 0.964454
vt 0.253073 0.962831
vt 0.250892 0.965741
vt 0.249280 0.963215
vt 0.248932 0.959697
vt 0.251444 0.958523
vt 0.252719 0.960921
vt 0.249053 0.961436
vt 0.244911 0.950728
vt 0.246807 0.947912
vt 0.252421 0.951476
vt 0.250336 0.953513
vt 0.248412 0.945407
vt 0.254257 0.949646
vt 0.246619 0.967139
vt 0.244810 0.963307
vt 0.241135 0.968271
vt 0.239529 0.963352
vt 0.240768 0.957864
vt 0.242665 0.954286
vt 0.247924 0.956146
vt 0.245958 0.958894
vt 0.244790 0.961230
vt 0.239613 0.960868
vt 0.231545 0.946324
vt 0.233087 0.942532
vt 0.240301 0.945037
vt 0.238601 0.948408
vt 0.234399 0.939313
vt 0.241713 0.942103
vt 0.234940 0.969212
vt 0.233568 0.963413
vt 0.227903 0.969903
vt 0.226787 0.963408
vt 0.227933 0.956202
vt 0.229644 0.951279
vt 0.236524 0.952715
vt 0.234726 0.957021
vt 0.233660 0.960591
vt 0.226897 0.960205
vt 0.215417 0.942462
vt 0.216603 0.937854
vt 0.225153 0.940119
vt 0.223774 0.944273
vt 0.217806 0.933995
vt 0.226420 0.936666
vt 0.219943 0.970194
vt 0.219122 0.963148
vt 0.211375 0.970468
vt 0.210873 0.962868
vt 0.212798 0.954257
vt 0.214128 0.948540
vt 0.222147 0.949830
vt 0.220597 0.955208
vt 0.219450 0.959424
vt 0.211521 0.958642
vt 0.197654 0.941180
vt 0.198181 0.935246
vt 0.207543 0.936088
vt 0.206638 0.941308
vt 0.198812 0.929583
vt 0.208547 0.931454
vt 0.202462 0.971034
vt 0.202303 0.962789
vt 0.193998 0.971492
vt 0.194062 0.962867
vt 0.196138 0.953754
vt 0.197006 0.947773
vt 0.205641 0.947691
vt 0.204481 0.953614
vt 0.203158 0.958225
vt 0.194962 0.958345
vt 0.177450 0.928814
vt 0.188337 0.928426
vt 0.188147 0.935558
vt 0.178017 0.937476
vt 0.188134 0.942490
vt 0.178706 0.945357
vt 0.179906 0.964735
vt 0.186768 0.963589
vt 0.186549 0.971681
vt 0.179459 0.971980
vt 0.187381 0.959469
vt 0.188053 0.955277
vt 0.180284 0.961148
vt 0.180371 0.957493
vt 0.188246 0.949418
vt 0.179735 0.952180
vt 0.162533 0.954719
vt 0.154977 0.960477
vt 0.149888 0.954016
vt 0.159564 0.946125
vt 0.150044 0.964474
vt 0.144575 0.963339
vt 0.143220 0.946262
vt 0.155873 0.935854
vt 0.167163 0.930941
vt 0.168818 0.940966
vt 0.170324 0.949652
vt 0.166132 0.967922
vt 0.173058 0.966214
vt 0.172216 0.972634
vt 0.164456 0.973391
vt 0.153525 0.970339
vt 0.148822 0.972682
vt 0.145055 0.969738
vt 0.150886 0.968340
vt 0.172058 0.955750
vt 0.164836 0.959753
vt 0.173242 0.959980
vt 0.166285 0.962777
vt 0.167165 0.965139
vt 0.161510 0.967179
vt 0.159049 0.966439
vt 0.158865 0.969765
vt 0.155729 0.973634
vt 0.157376 0.964269
vt 0.173478 0.963100
vt 0.739435 0.967095
vt 0.738243 0.962212
vt 0.739848 0.962125
vt 0.741280 0.963887
vt 0.739745 0.957657
vt 0.741422 0.958858
vt 0.743042 0.960470
vt 0.747739 0.966741
vt 0.746587 0.969924
vt 0.742988 0.970439
vt 0.743672 0.967060
vt 0.739840 0.971864
vt 0.744119 0.964810
vt 0.747679 0.964956
vt 0.745285 0.962223
vt 0.747713 0.963217
vt 0.757702 0.966138
vt 0.756828 0.970890
vt 0.751199 0.970298
vt 0.752371 0.966442
vt 0.745105 0.955124
vt 0.746874 0.957173
vt 0.743451 0.953184
vt 0.748979 0.949161
vt 0.750519 0.951620
vt 0.752184 0.954281
vt 0.755751 0.960777
vt 0.757191 0.963773
vt 0.752004 0.964476
vt 0.750591 0.962182
vt 0.748815 0.959653
vt 0.754022 0.957506
vt 0.770269 0.965317
vt 0.770105 0.971492
vt 0.763099 0.971310
vt 0.763624 0.965793
vt 0.756838 0.948564
vt 0.758331 0.951704
vt 0.755452 0.945703
vt 0.762505 0.942472
vt 0.763806 0.945627
vt 0.765146 0.949164
vt 0.768016 0.957991
vt 0.769491 0.962116
vt 0.762989 0.963044
vt 0.761555 0.959426
vt 0.759963 0.955529
vt 0.766561 0.953542
vt 0.785561 0.963777
vt 0.786225 0.971177
vt 0.777872 0.971348
vt 0.777651 0.964542
vt 0.771363 0.942420
vt 0.772574 0.946360
vt 0.770105 0.939002
vt 0.778373 0.935474
vt 0.779574 0.939326
vt 0.780596 0.943779
vt 0.782430 0.954731
vt 0.784113 0.959416
vt 0.776613 0.960772
vt 0.775048 0.956322
vt 0.773751 0.951366
vt 0.781390 0.949386
vt 0.801854 0.963119
vt 0.803603 0.971090
vt 0.795038 0.971188
vt 0.793819 0.963283
vt 0.788487 0.937026
vt 0.789127 0.942146
vt 0.787456 0.932400
vt 0.797263 0.930084
vt 0.797839 0.935992
vt 0.797917 0.942013
vt 0.797928 0.953428
vt 0.799736 0.958148
vt 0.791850 0.958444
vt 0.789988 0.953613
vt 0.789320 0.948127
vt 0.797598 0.948067
vt 0.811285 0.970623
vt 0.818776 0.970574
vt 0.809415 0.963264
vt 0.816674 0.963989
vt 0.815989 0.946215
vt 0.807086 0.943563
vt 0.807572 0.936616
vt 0.817219 0.938523
vt 0.807873 0.929199
vt 0.818867 0.929787
vt 0.815324 0.956258
vt 0.815626 0.960040
vt 0.807843 0.958787
vt 0.806744 0.954505
vt 0.806639 0.949554
vt 0.815441 0.951900
vt 0.841463 0.936687
vt 0.855246 0.947018
vt 0.847366 0.952651
vt 0.836108 0.945251
vt 0.853369 0.962471
vt 0.847050 0.961883
vt 0.841776 0.957712
vt 0.832744 0.952502
vt 0.826774 0.971233
vt 0.834707 0.971518
vt 0.823797 0.965226
vt 0.830692 0.966302
vt 0.824268 0.949044
vt 0.826250 0.941212
vt 0.829456 0.931947
vt 0.851639 0.968173
vt 0.845179 0.965478
vt 0.847294 0.970316
vt 0.841674 0.967159
vt 0.823139 0.954416
vt 0.822695 0.958238
vt 0.830681 0.957218
vt 0.829487 0.960433
vt 0.841790 0.971064
vt 0.837016 0.967085
vt 0.833969 0.964525
vt 0.836188 0.963523
vt 0.828918 0.963149
vt 0.838501 0.961293
vt 0.822718 0.961594
vn -0.0259 -0.9994 -0.0220
vn -0.0319 -0.9990 -0.0325
vn -0.0203 -0.9997 -0.0115
vn -0.0043 -0.9998 -0.0174
vn 0.2164 -0.9762 -0.0130
vn 0.2020 -0.9793 -0.0159
vn 0.2088 -0.9779 0.0046
vn 0.2210 -0.9753 -0.0027
vn 0.2218 -0.9750 -0.0091
vn 0.2281 -0.9735 -0.0129
vn 0.2272 -0.9738 -0.0130
vn 0.2213 -0.9752 -0.0081
vn -0.0003 -0.9998 -0.0190
vn 0.0083 -0.9997 -0.0245
vn -0.3187 -0.9477 -0.0192
vn -0.3177 -0.9481 -0.0105
vn -0.3161 -0.9487 0.0047
vn -0.2861 -0.9580 -0.0199
vn -0.2856 -0.9582 -0.0164
vn -0.2864 -0.9578 -0.0222
vn -0.0351 -0.9992 -0.0196
vn -0.0347 -0.9992 -0.0187
vn -0.0350 -0.9993 -0.0164
vn -0.0524 -0.9986 -0.0064
vn -0.0515 -0.9984 -0.0252
vn -0.0438 -0.9986 -0.0300
vn -0.0452 -0.9986 -0.0288
vn -0.0528 -0.9983 -0.0248
vn -0.2575 -0.9655 -0.0394
vn -0.2561 -0.9662 -0.0293
vn -0.2571 -0.9655 -0.0408
vn -0.2855 -0.9583 -0.0139
vn -0.0136 -0.9999 0.0018
vn -0.0183 -0.9998 0.0038
vn -0.0232 -0.9997 0.0061
vn -0.0189 -0.9998 0.0040
vn 0.1822 -0.9830 0.0235
vn 0.1740 -0.9844 0.0278
vn 0.1798 -0.9834 0.0242
vn 0.1886 -0.9819 0.0198
vn 0.1983 -0.9798 -0.0269
vn 0.1908 -0.9814 -0.0232
vn -0.0003 -0.9996 -0.0292
vn -0.0203 -0.9986 -0.0490
vn -0.3892 -0.9202 0.0424
vn -0.3496 -0.9368 -0.0098
vn -0.3480 -0.9375 0.0046
vn -0.3479 -0.9375 0.0018
vn 0.0350 -0.9990 0.0277
vn 0.0383 -0.9989 0.0272
vn 0.0346 -0.9994 0.0045
vn 0.0039 -0.9999 -0.0106
vn 0.0057 -0.9998 0.0216
vn -0.0348 -0.9992 -0.0219
vn -0.3202 -0.9467 -0.0340
vn -0.3487 -0.9372 -0.0069
vn -0.0322 -0.9990 -0.0296
vn -0.0398 -0.9989 -0.0253
vn -0.0362 -0.9990 -0.0273
vn -0.0289 -0.9991 -0.0315
vn 0.0917 -0.9958 -0.0012
vn 0.0747 -0.9972 0.0095
vn 0.0866 -0.9962 0.0016
vn 0.1050 -0.9944 -0.0089
vn 0.1728 -0.9837 0.0500
vn 0.0963 -0.9910 0.0927
vn -0.0246 -0.9989 0.0390
vn -0.0173 -0.9992 0.0351
vn -0.0187 -0.9992 0.0358
vn -0.0260 -0.9989 0.0398
vn -0.3539 -0.9336 0.0558
vn -0.3224 -0.9465 0.0147
vn -0.3541 -0.9335 0.0570
vn -0.3885 -0.9157 0.1025
vn 0.0497 -0.9982 -0.0326
vn 0.0458 -0.9985 -0.0297
vn 0.0522 -0.9980 -0.0345
vn 0.0562 -0.9977 -0.0375
vn 0.0514 -0.9980 0.0375
vn 0.0576 -0.9978 0.0340
vn -0.3878 -0.9186 0.0764
vn -0.3856 -0.9197 0.0743
vn -0.3886 -0.9181 0.0773
vn -0.3914 -0.9167 0.0802
vn 0.1368 -0.9842 0.1123
vn 0.1432 -0.9822 0.1216
vn 0.1345 -0.9848 0.1095
vn 0.1302 -0.9862 0.1026
vn 0.1070 -0.9893 0.0991
vn 0.0729 -0.9956 0.0592
vn 0.1072 -0.9894 0.0982
vn 0.1421 -0.9802 0.1382
vn -0.0529 -0.9926 0.1094
vn -0.0730 -0.9932 0.0905
vn -0.0645 -0.9931 0.0979
vn -0.0417 -0.9922 0.1178
vn -0.0612 -0.9949 0.0799
vn -0.0484 -0.9943 0.0951
vn -0.0615 -0.9949 0.0794
vn -0.0723 -0.9951 0.0667
vn -0.0949 -0.9916 0.0875
vn -0.0888 -0.9915 0.0948
vn -0.0964 -0.9916 0.0859
vn -0.1019 -0.9916 0.0798
vn 0.0464 -0.9948 0.0903
vn -0.0940 -0.9952 -0.0261
vn -0.2718 -0.9604 0.0616
vn -0.3214 -0.9467 0.0230
vn -0.1749 -0.9678 0.1808
vn -0.2677 -0.9582 0.1007
vn 0.0826 -0.9920 0.0951
vn 0.0835 -0.9930 0.0839
vn 0.0826 -0.9922 0.0933
vn 0.0757 -0.9933 0.0872
vn 0.0966 -0.9932 0.0653
vn 0.0788 -0.9952 0.0576
vn 0.1270 -0.9816 0.1424
vn 0.0838 -0.9931 0.0821
vn -0.0739 -0.9942 0.0776
vn -0.0585 -0.9941 0.0915
vn -0.0432 -0.9963 0.0745
vn -0.0473 -0.9965 0.0694
vn -0.0449 -0.9923 0.1153
vn -0.0140 -0.9923 0.1233
vn -0.0159 -0.9958 0.0897
vn -0.0398 -0.9955 0.0862
vn -0.0353 -0.9882 0.1488
vn -0.0135 -0.9849 0.1724
vn -0.0783 -0.9912 0.1071
vn -0.0582 -0.9896 0.1312
vn -0.0835 -0.9711 0.2236
vn -0.0744 -0.9737 0.2154
vn -0.0880 -0.9803 0.1769
vn -0.1843 -0.9752 0.1228
vn -0.0524 -0.9776 0.2041
vn -0.0761 -0.9808 0.1795
vn 0.1560 -0.9820 -0.1063
vn 0.2990 -0.9531 -0.0465
vn 0.1065 -0.9930 0.0501
vn 0.1349 -0.9884 0.0703
vn 0.0104 -0.9896 0.1434
vn 0.0303 -0.9892 0.1437
vn 0.0571 -0.9880 0.1438
vn -0.0056 -0.9966 0.0822
vn -0.0242 -0.9997 -0.0045
vn 0.0606 -0.9965 0.0568
vn -0.1383 0.0865 -0.9866
vn 0.0457 0.0893 -0.9950
vn 0.2116 -0.3569 -0.9099
vn 0.1462 -0.3612 -0.9210
vn 0.0647 -0.6500 -0.7572
vn -0.0411 -0.6472 -0.7612
vn -0.2287 -0.3144 -0.9213
vn -0.1902 -0.3023 -0.9341
vn -0.0322 -0.9993 0.0168
vn -0.0526 -0.9986 -0.0022
vn -0.0345 -0.9993 0.0166
vn -0.0081 -0.9992 0.0403
vn -0.0161 -0.9896 0.1427
vn -0.0535 -0.9927 0.1084
vn -0.0566 -0.9926 0.1077
vn -0.0526 -0.9927 0.1085
vn -0.0782 -0.9932 0.0865
vn -0.0575 -0.9925 0.1075
vn -0.2868 -0.9207 -0.2648
vn -0.0851 -0.9962 0.0165
vn -0.0276 -0.9996 -0.0060
vn -0.0365 -0.9993 -0.0003
vn -0.0362 -0.9993 -0.0007
vn -0.0271 -0.9996 -0.0057
vn -0.2739 -0.9613 0.0280
vn -0.2286 -0.9734 -0.0122
vn -0.2552 -0.9665 -0.0279
vn -0.2340 -0.9710 -0.0492
vn -0.0456 -0.9980 -0.0438
vn -0.0434 -0.9980 -0.0450
vn -0.0276 -0.9981 -0.0548
vn -0.0294 -0.9981 -0.0534
vn 0.2105 -0.9776 0.0081
vn 0.2396 -0.9708 -0.0090
vn 0.0338 -0.9994 -0.0077
vn 0.0287 -0.9996 -0.0046
vn 0.0281 -0.9996 -0.0044
vn 0.0327 -0.9994 -0.0068
vn 0.0164 -0.9991 -0.0383
vn 0.0075 -0.9994 -0.0329
vn 0.0229 -0.9988 -0.0422
vn 0.0319 -0.9983 -0.0484
vn 0.2389 -0.9706 -0.0277
vn 0.2292 -0.9731 -0.0215
vn 0.2301 -0.9729 -0.0229
vn 0.2409 -0.9701 -0.0288
vn 0.1491 -0.7825 0.6045
vn 0.1200 -0.7632 0.6349
vn -0.0425 -0.8232 0.5661
vn -0.0320 -0.8275 0.5606
vn -0.0343 -0.8264 0.5621
vn -0.0444 -0.8202 0.5704
vn 0.0287 -0.9842 0.1747
vn -0.0304 -0.9789 0.2019
vn 0.2028 -0.9689 0.1419
vn 0.1170 -0.9737 0.1954
vn 0.0892 0.4642 0.8812
vn 0.1119 0.4594 0.8811
vn 0.2125 0.4378 0.8736
vn 0.1032 0.4533 0.8854
vn 0.0248 0.5526 0.8331
vn 0.2451 0.4298 0.8690
vn 0.0404 0.0223 0.9989
vn 0.1704 -0.1880 0.9673
vn 0.1704 -0.1882 0.9672
vn 0.1391 0.0055 0.9903
vn 0.1385 0.0050 0.9904
vn 0.1343 0.0112 0.9909
vn 0.1337 0.0107 0.9910
vn 0.2782 -0.7318 0.6222
vn 0.3368 -0.6486 0.6826
vn 0.3478 -0.9209 0.1759
vn 0.2714 -0.9617 0.0375
vn 0.5603 -0.6549 0.5071
vn 0.5347 -0.8128 0.2313
vn 0.4427 0.3942 0.8054
vn 0.4426 0.3941 0.8055
vn 0.4082 0.4285 0.8061
vn 0.1953 0.4430 0.8750
vn 0.2251 0.4136 0.8822
vn 0.3040 -0.0368 0.9520
vn 0.2736 0.0048 0.9618
vn 0.6308 -0.2212 0.7438
vn 0.5203 -0.0158 0.8538
vn 0.5202 -0.0154 0.8539
vn 0.1033 0.8579 0.5033
vn 0.1074 0.8563 0.5052
vn 0.0902 0.8630 0.4970
vn 0.0850 0.8652 0.4941
vn 0.0037 0.8589 0.5121
vn -0.0000 0.8580 0.5136
vn -0.0091 0.8612 0.5082
vn -0.0070 0.8614 0.5078
vn 0.0225 0.7347 0.6781
vn 0.0443 0.7333 0.6785
vn 0.0656 0.7319 0.6783
vn 0.0004 0.7427 0.6697
vn 0.0796 0.7332 0.6754
vn 0.0796 0.7330 0.6756
vn 0.0853 0.7301 0.6780
vn 0.5783 -0.8097 0.0995
vn 0.5070 -0.8531 0.1229
vn 0.3693 -0.9292 0.0145
vn 0.3828 -0.9238 0.0024
vn 0.3805 -0.9248 -0.0032
vn 0.3820 -0.9242 0.0053
vn 0.3780 -0.9258 -0.0050
vn 0.3722 -0.9281 0.0075
vn 0.5139 -0.8566 0.0455
vn 0.5129 -0.8576 0.0386
vn 0.5113 -0.8574 0.0588
vn 0.5243 -0.8500 0.0521
vn 0.4303 0.7713 0.4690
vn 0.4372 0.7634 0.4754
vn 0.4198 0.7820 0.4608
vn 0.4106 0.7917 0.4524
vn 0.2464 0.8373 0.4881
vn 0.2528 0.8330 0.4922
vn 0.2336 0.8457 0.4798
vn 0.2262 0.8512 0.4735
vn 0.2006 0.7214 0.6628
vn 0.1914 0.7294 0.6568
vn 0.2076 0.7162 0.6663
vn 0.2154 0.7100 0.6704
vn 0.3821 0.6688 0.6377
vn 0.3814 0.6694 0.6375
vn 0.3822 0.6685 0.6379
vn 0.3870 0.6625 0.6413
vn 0.6968 0.5631 0.4443
vn 0.6821 0.5722 0.4553
vn 0.6864 0.5698 0.4518
vn 0.7004 0.5614 0.4407
vn 0.5858 0.4900 0.6456
vn 0.5858 0.4899 0.6456
vn 0.6358 0.4616 0.6186
vn 0.8397 -0.2067 0.5021
vn 0.8262 -0.1606 0.5400
vn 0.9287 -0.1443 0.3416
vn 0.9278 -0.1385 0.3464
vn 0.9278 -0.1378 0.3466
vn 0.9288 -0.1444 0.3413
vn 0.1583 0.9084 0.3869
vn 0.1600 0.9077 0.3880
vn 0.1410 0.9078 0.3949
vn 0.1307 0.9110 0.3912
vn 0.0230 0.9164 0.3995
vn 0.0310 0.9149 0.4026
vn 0.0063 0.9154 0.4025
vn -0.0043 0.9123 0.4096
vn 0.0043 0.9072 0.4207
vn -0.0006 0.9082 0.4184
vn 0.1255 0.9055 0.4053
vn 0.1085 0.9117 0.3963
vn 0.5171 -0.8554 0.0309
vn 0.5092 -0.8599 0.0357
vn 0.3724 -0.9281 0.0014
vn 0.3713 -0.9285 0.0025
vn 0.3888 -0.9213 0.0097
vn 0.3892 -0.9211 -0.0050
vn 0.3801 -0.9249 0.0074
vn 0.3695 -0.9291 0.0171
vn 0.5349 -0.8449 0.0029
vn 0.5450 -0.8384 -0.0048
vn 0.5234 -0.8520 0.0093
vn 0.5124 -0.8585 0.0188
vn 0.4939 0.7947 0.3529
vn 0.4788 0.8100 0.3386
vn 0.3037 0.8776 0.3709
vn 0.2917 0.8855 0.3616
vn 0.2724 0.8857 0.3759
vn 0.2584 0.8941 0.3659
vn 0.2783 0.8821 0.3801
vn 0.2904 0.8739 0.3897
vn 0.4585 0.8188 0.3454
vn 0.4475 0.8292 0.3349
vn 0.4678 0.8104 0.3527
vn 0.4774 0.8008 0.3616
vn 0.7357 0.5963 0.3212
vn 0.7339 0.6010 0.3165
vn 0.7364 0.5969 0.3186
vn 0.7639 0.5763 0.2904
vn 0.7149 0.6154 0.3321
vn 0.7220 0.6107 0.3253
vn 0.9661 -0.0990 0.2385
vn 0.9662 -0.0996 0.2379
vn 0.9658 -0.0964 0.2406
vn 0.9657 -0.0955 0.2415
vn 0.9788 -0.0971 0.1803
vn 0.9780 -0.0964 0.1852
vn 0.9792 -0.0951 0.1794
vn 0.9777 -0.0828 0.1928
vn 0.0746 0.9317 0.3554
vn 0.1147 0.9163 0.3838
vn 0.1179 0.9158 0.3840
vn 0.1183 0.9170 0.3810
vn -0.0016 0.9379 0.3468
vn 0.0141 0.9380 0.3465
vn 0.0183 0.9377 0.3470
vn 0.0039 0.9315 0.3638
vn 0.0042 0.9323 0.3617
vn 0.0055 0.9369 0.3497
vn 0.0314 0.9223 0.3852
vn 0.0467 0.9218 0.3848
vn 0.0026 0.9267 0.3758
vn 0.1595 0.8998 0.4061
vn 0.1918 0.8937 0.4056
vn 0.2317 0.8850 0.4039
vn 0.5469 -0.8371 -0.0164
vn 0.6201 -0.7814 -0.0699
vn 0.3888 -0.9213 0.0026
vn 0.4382 -0.8979 -0.0408
vn 0.5159 -0.8565 -0.0182
vn 0.4265 -0.9025 0.0602
vn 0.6817 -0.7298 -0.0513
vn 0.6092 -0.7930 0.0048
vn 0.4659 0.7850 0.4083
vn 0.4630 0.7882 0.4055
vn 0.4682 0.7829 0.4097
vn 0.4679 0.7764 0.4222
vn 0.2265 0.8958 0.3824
vn 0.2577 0.8753 0.4092
vn 0.2577 0.8754 0.4090
vn 0.2991 0.8495 0.4346
vn 0.2581 0.8782 0.4027
vn 0.4840 0.7568 0.4393
vn 0.4678 0.7752 0.4245
vn 0.7825 0.5022 0.3680
vn 0.7832 0.5037 0.3645
vn 0.7838 0.5059 0.3602
vn 0.8063 0.4853 0.3381
vn 0.7493 0.5306 0.3962
vn 0.7846 0.5083 0.3549
vn 0.9799 -0.1175 0.1610
vn 0.9778 -0.1224 0.1699
vn 0.9798 -0.1180 0.1613
vn 0.9781 -0.0976 0.1838
vn 0.9788 -0.1348 0.1542
vn 0.9778 -0.1215 0.1706
vn 0.1066 0.9794 0.1715
vn 0.0664 0.9880 0.1395
vn 0.0157 0.9847 0.1734
vn -0.0055 0.9866 0.1632
vn -0.0026 0.9491 0.3150
vn -0.0022 0.9489 0.3155
vn 0.0136 0.9466 0.3221
vn 0.0131 0.9468 0.3216
vn 0.0727 0.9445 0.3204
vn 0.0765 0.9434 0.3227
vn 0.0662 0.9464 0.3162
vn 0.0631 0.9471 0.3146
vn 0.6593 -0.7477 0.0795
vn 0.7073 -0.7059 0.0388
vn 0.4929 -0.8582 0.1432
vn 0.5787 -0.8130 0.0641
vn 0.5641 -0.8180 0.1124
vn 0.5642 -0.8179 0.1130
vn 0.5728 -0.8131 0.1040
vn 0.5733 -0.8127 0.1043
vn 0.6807 -0.7187 0.1416
vn 0.6756 -0.7226 0.1461
vn 0.6806 -0.7188 0.1417
vn 0.6858 -0.7148 0.1371
vn 0.5578 0.8114 0.1745
vn 0.5167 0.8464 0.1291
vn 0.3309 0.9266 0.1789
vn 0.2789 0.9520 0.1264
vn 0.2352 0.9235 0.3030
vn 0.2701 0.9026 0.3351
vn 0.4769 0.8330 0.2807
vn 0.5121 0.7989 0.3156
vn 0.8285 0.5291 0.1834
vn 0.8259 0.5320 0.1864
vn 0.8282 0.5295 0.1838
vn 0.8308 0.5263 0.1812
vn 0.8133 0.5145 0.2719
vn 0.8235 0.5047 0.2592
vn 0.9755 -0.1376 0.1716
vn 0.9755 -0.1404 0.1694
vn 0.9755 -0.1433 0.1669
vn 0.9755 -0.1407 0.1691
vn 0.9659 -0.1490 0.2116
vn 0.9659 -0.1532 0.2090
vn 0.9658 -0.1588 0.2050
vn 0.9659 -0.1546 0.2078
vn 0.0467 0.9982 -0.0372
vn 0.0904 0.9934 -0.0704
vn 0.0038 0.9996 0.0285
vn 0.0531 0.9986 0.0015
vn 0.1845 0.9819 -0.0421
vn 0.1837 0.9817 -0.0496
vn 0.1837 0.9817 -0.0506
vn 0.1024 0.9947 0.0069
vn 0.2658 0.9566 -0.1194
vn 0.1830 0.9814 -0.0576
vn 0.6840 -0.7071 0.1790
vn 0.7359 -0.6034 0.3071
vn 0.7057 -0.6369 0.3103
vn 0.7258 -0.5992 0.3379
vn 0.6549 -0.7232 0.2194
vn 0.6651 -0.7041 0.2487
vn 0.5088 -0.8496 0.1388
vn 0.5441 -0.8093 0.2211
vn 0.4452 -0.8729 0.1995
vn 0.4792 -0.8311 0.2820
vn 0.8292 0.5504 0.0977
vn 0.8295 0.5498 0.0986
vn 0.8280 0.5524 0.0958
vn 0.8274 0.5535 0.0950
vn 0.9555 -0.1751 0.2374
vn 0.9606 -0.1590 0.2280
vn 0.9664 -0.1891 0.1741
vn 0.9604 -0.1882 0.2054
vn 0.9876 -0.1260 0.0934
vn 0.9924 -0.0979 0.0746
vn 0.8558 0.5152 0.0470
vn 0.8227 0.5684 0.0038
vn 0.4028 0.9120 -0.0776
vn 0.4638 0.8782 -0.1169
vn 0.3238 0.9461 -0.0087
vn 0.4045 0.9127 -0.0583
vn 0.5849 0.8105 -0.0307
vn 0.5465 0.8374 -0.0076
vn 0.5553 0.8300 -0.0522
vn 0.5814 0.8109 -0.0663
vn 0.3102 0.8076 -0.5015
vn 0.1703 0.8494 -0.4995
vn 0.2077 0.8439 -0.4946
vn 0.2911 0.8268 -0.4813
vn 0.3200 0.6754 -0.6644
vn 0.2714 0.7282 -0.6293
vn 0.0711 0.7553 -0.6515
vn 0.0521 0.7655 -0.6413
vn 0.0685 0.7565 -0.6504
vn 0.0881 0.7458 -0.6603
vn 0.0878 0.8541 -0.5126
vn 0.0808 0.8579 -0.5074
vn 0.0728 0.9349 -0.3474
vn 0.2176 0.8975 -0.3837
vn 0.1949 0.9015 -0.3865
vn 0.1228 0.9084 -0.3996
vn 0.0663 0.9849 -0.1598
vn 0.1172 0.9695 -0.2151
vn 0.3184 0.9128 -0.2559
vn 0.2539 0.9487 -0.1884
vn 0.3173 0.8556 -0.4089
vn 0.2856 0.8847 -0.3684
vn 0.6244 -0.7730 0.1123
vn 0.5740 -0.8155 0.0741
vn 0.6675 -0.6851 0.2919
vn 0.6106 -0.7600 0.2227
vn 0.4183 -0.8867 0.1970
vn 0.4025 -0.9036 0.1469
vn 0.4157 -0.8941 0.1668
vn 0.4395 -0.8675 0.2329
vn 0.3680 -0.9269 0.0734
vn 0.4052 -0.9071 0.1139
vn 0.4710 -0.0551 -0.8804
vn 0.4651 -0.1158 -0.8777
vn 0.2834 -0.2690 -0.9205
vn 0.2628 -0.3406 -0.9027
vn 0.1653 0.2992 -0.9397
vn 0.1380 0.2547 -0.9571
vn 0.3608 0.4115 -0.8370
vn 0.3182 0.3275 -0.8897
vn 0.4794 0.8035 -0.3531
vn 0.5162 0.7682 -0.3787
vn 0.4527 0.8683 -0.2029
vn 0.5039 0.8302 -0.2385
vn 0.6778 0.6841 -0.2694
vn 0.5367 0.8133 -0.2247
vn 0.7033 0.6291 -0.3312
vn 0.6681 0.6721 -0.3192
vn 0.7552 0.4304 -0.4943
vn 0.7048 0.4681 -0.5330
vn 0.9039 -0.2474 -0.3490
vn 0.8367 -0.5371 -0.1068
vn 0.6953 0.2001 -0.6904
vn 0.7738 -0.1436 -0.6170
vn 0.5237 -0.7404 -0.4214
vn 0.5802 -0.7127 -0.3942
vn 0.5774 -0.8157 -0.0365
vn 0.5070 -0.8598 -0.0608
vn 0.3274 -0.9445 -0.0272
vn 0.3715 -0.9284 -0.0008
vn 0.3481 -0.9122 -0.2163
vn 0.3492 -0.9118 -0.2158
vn 0.3400 -0.9145 -0.2192
vn 0.3392 -0.9148 -0.2194
vn 0.6895 0.2582 -0.6767
vn 0.6316 0.2913 -0.7185
vn 0.5668 0.4969 -0.6571
vn 0.4740 0.5270 -0.7053
vn 0.4633 0.7038 -0.5385
vn 0.5878 0.6767 -0.4434
vn 0.6399 0.5364 -0.5502
vn 0.7452 0.4745 -0.4687
vn 0.8316 0.5176 -0.2013
vn 0.8662 0.4773 -0.1480
vn 0.9792 -0.1107 0.1703
vn 0.9810 -0.1040 0.1636
vn 0.9808 -0.1054 0.1643
vn 0.9788 -0.1117 0.1719
vn 0.9467 -0.3151 0.0673
vn 0.9886 -0.1096 -0.1034
vn 0.8121 0.5137 -0.2768
vn 0.8540 0.4697 -0.2235
vn -0.1873 0.1371 0.9727
vn -0.0112 0.1183 0.9929
vn 0.0488 0.5524 0.8321
vn -0.0078 0.5289 0.8486
vn -0.1803 0.4512 0.8740
vn -0.0805 0.5292 0.8446
vn -0.3779 -0.8562 0.3524
vn -0.3775 -0.8579 0.3485
vn -0.3773 -0.8560 0.3534
vn -0.3771 -0.8558 0.3541
vn -0.2838 -0.9564 0.0691
vn -0.2712 -0.9542 0.1261
vn -0.1223 -0.9788 0.1643
vn -0.0401 -0.9552 0.2933
vn -0.2113 -0.8537 0.4759
vn -0.1777 -0.8050 0.5660
vn -0.5154 -0.2327 0.8247
vn -0.4726 -0.3261 0.8187
vn -0.3169 -0.0423 0.9475
vn -0.3170 -0.0427 0.9475
vn -0.1755 -0.2010 0.9637
vn -0.1575 0.3982 0.9037
vn -0.2263 0.4432 0.8674
vn -0.4114 0.4073 0.8154
vn -0.3910 0.3677 0.8438
vn -0.4938 -0.8693 0.0220
vn -0.4918 -0.8705 0.0185
vn -0.4931 -0.8698 0.0184
vn -0.4936 -0.8694 0.0225
vn -0.3826 -0.9238 -0.0146
vn -0.3711 -0.9279 -0.0365
vn -0.3432 -0.9392 0.0126
vn -0.3372 -0.9413 -0.0138
vn -0.3454 -0.9383 0.0171
vn -0.3548 -0.9341 0.0406
vn -0.4823 -0.8663 0.1299
vn -0.4718 -0.8769 0.0920
vn -0.1311 0.7440 0.6552
vn -0.0761 0.7344 0.6745
vn 0.0594 0.7414 0.6685
vn 0.0012 0.7594 0.6506
vn -0.0116 0.8600 0.5102
vn -0.0162 0.8607 0.5088
vn -0.1003 0.8507 0.5161
vn -0.1024 0.8509 0.5153
vn -0.0997 0.8506 0.5162
vn -0.0975 0.8505 0.5169
vn -0.6561 0.5299 0.5373
vn -0.6567 0.5301 0.5364
vn -0.6441 0.5373 0.5444
vn -0.6428 0.5376 0.5458
vn -0.8982 -0.1320 0.4193
vn -0.8973 -0.1280 0.4225
vn -0.8977 -0.1301 0.4209
vn -0.8989 -0.1342 0.4171
vn -0.7793 -0.2285 0.5835
vn -0.7815 -0.2335 0.5786
vn -0.7792 -0.2281 0.5837
vn -0.7776 -0.2227 0.5880
vn -0.5588 0.4451 0.6998
vn -0.5855 0.4298 0.6873
vn -0.4169 0.7307 0.5405
vn -0.4166 0.7314 0.5399
vn -0.4181 0.7291 0.5418
vn -0.4186 0.7288 0.5419
vn -0.3834 0.6114 0.6922
vn -0.3733 0.6255 0.6851
vn -0.2050 0.7038 0.6802
vn -0.2175 0.6924 0.6879
vn -0.2349 0.8177 0.5256
vn -0.2340 0.8178 0.5257
vn -0.2390 0.8143 0.5290
vn -0.2392 0.8138 0.5296
vn -0.5298 -0.8465 -0.0524
vn -0.5387 -0.8417 -0.0371
vn -0.5276 -0.8476 -0.0560
vn -0.5185 -0.8519 -0.0730
vn -0.4364 -0.8992 -0.0331
vn -0.4520 -0.8920 -0.0042
vn -0.4358 -0.8995 -0.0329
vn -0.4155 -0.9071 -0.0677
vn -0.3894 -0.9196 -0.0513
vn -0.4075 -0.9130 -0.0193
vn -0.5057 -0.8625 -0.0188
vn -0.5026 -0.8643 -0.0209
vn -0.5036 -0.8637 -0.0208
vn -0.5049 -0.8630 -0.0166
vn -0.1208 0.8968 0.4256
vn -0.1123 0.8962 0.4291
vn -0.1216 0.9011 0.4162
vn -0.1277 0.9029 0.4105
vn -0.0186 0.9082 0.4182
vn -0.0162 0.9079 0.4189
vn -0.0048 0.9095 0.4156
vn -0.0035 0.9107 0.4130
vn -0.0143 0.9158 0.4014
vn -0.0094 0.9151 0.4031
vn -0.1277 0.9042 0.4075
vn -0.1263 0.9056 0.4048
vn -0.7393 0.5684 0.3610
vn -0.7086 0.5823 0.3986
vn -0.7028 0.5902 0.3971
vn -0.7083 0.5869 0.3923
vn -0.9747 -0.0540 0.2167
vn -0.9724 -0.0581 0.2261
vn -0.9749 -0.0525 0.2164
vn -0.9719 -0.0364 0.2327
vn -0.9547 -0.0649 0.2904
vn -0.9542 -0.0623 0.2925
vn -0.9543 -0.0625 0.2922
vn -0.9548 -0.0649 0.2901
vn -0.6951 0.5905 0.4100
vn -0.6852 0.5964 0.4181
vn -0.4579 0.7865 0.4144
vn -0.4576 0.7869 0.4140
vn -0.4602 0.7840 0.4166
vn -0.4606 0.7837 0.4166
vn -0.4445 0.7888 0.4245
vn -0.4539 0.7790 0.4326
vn -0.2543 0.8668 0.4289
vn -0.2570 0.8705 0.4197
vn -0.2533 0.8674 0.4283
vn -0.2525 0.8681 0.4274
vn -0.2459 0.8779 0.4109
vn -0.2564 0.8712 0.4187
vn -0.6221 -0.7825 -0.0255
vn -0.5907 -0.8042 -0.0663
vn -0.5928 -0.8015 -0.0785
vn -0.5940 -0.8002 -0.0832
vn -0.5648 -0.8243 0.0392
vn -0.5645 -0.8245 0.0407
vn -0.5656 -0.8240 0.0337
vn -0.5217 -0.8514 -0.0548
vn -0.4657 -0.8796 -0.0972
vn -0.5147 -0.8574 -0.0075
vn -0.5569 -0.8216 -0.1223
vn -0.5893 -0.8056 -0.0615
vn -0.1258 0.9059 0.4043
vn -0.0524 0.8983 0.4362
vn -0.0116 0.9266 0.3759
vn 0.0389 0.9152 0.4012
vn 0.0455 0.9344 0.3534
vn 0.0323 0.9375 0.3464
vn 0.0031 0.9221 0.3869
vn -0.0640 0.9311 0.3592
vn -0.7967 0.4803 0.3669
vn -0.7618 0.5034 0.4077
vn -0.7635 0.5078 0.3991
vn -0.7620 0.5030 0.4079
vn -0.9761 -0.1271 0.1762
vn -0.9720 -0.0987 0.2133
vn -0.9722 -0.0582 0.2270
vn -0.9777 -0.0868 0.1912
vn -0.7246 0.5293 0.4413
vn -0.7638 0.5076 0.3987
vn -0.4386 0.7845 0.4384
vn -0.4363 0.7808 0.4472
vn -0.4331 0.7751 0.4601
vn -0.4350 0.7885 0.4348
vn -0.4449 0.7551 0.4815
vn -0.4302 0.7713 0.4690
vn -0.1864 0.8786 0.4397
vn -0.1901 0.8825 0.4303
vn -0.1884 0.8802 0.4357
vn -0.2313 0.8500 0.4732
vn -0.1612 0.9023 0.3999
vn -0.1902 0.8846 0.4259
vn -0.6152 -0.7722 0.1591
vn -0.6041 -0.7861 0.1309
vn -0.5801 -0.7983 0.1618
vn -0.5805 -0.7980 0.1621
vn -0.5764 -0.8029 0.1518
vn -0.5764 -0.8030 0.1514
vn -0.5634 -0.8249 0.0460
vn -0.5884 -0.8022 0.1017
vn -0.6099 -0.7922 0.0198
vn -0.6286 -0.7753 0.0614
vn -0.0103 0.9522 0.3052
vn -0.0279 0.9541 0.2982
vn 0.0367 0.9481 0.3158
vn 0.0438 0.9461 0.3210
vn 0.0177 0.9517 0.3065
vn 0.0124 0.9530 0.3026
vn -0.0022 0.9865 0.1639
vn -0.0123 0.9875 0.1571
vn 0.0006 0.9861 0.1660
vn 0.0113 0.9848 0.1734
vn -0.1136 0.9839 0.1382
vn -0.0512 0.9852 0.1639
vn -0.8200 0.5354 0.2024
vn -0.8026 0.5558 0.2165
vn -0.9542 -0.2152 0.2079
vn -0.9543 -0.1969 0.2249
vn -0.9671 -0.1459 0.2086
vn -0.9687 -0.1697 0.1811
vn -0.8061 0.5211 0.2803
vn -0.7938 0.5325 0.2940
vn -0.7938 0.5326 0.2937
vn -0.5533 0.8180 0.1573
vn -0.5644 0.8081 0.1689
vn -0.4727 0.8376 0.2738
vn -0.5299 0.7807 0.3312
vn -0.2095 0.9299 0.3023
vn -0.2357 0.9143 0.3293
vn -0.2198 0.9241 0.3127
vn -0.1934 0.9386 0.2856
vn -0.3542 0.9140 0.1979
vn -0.2705 0.9565 0.1096
vn -0.4546 -0.8641 0.2160
vn -0.3533 -0.8854 0.3020
vn -0.3585 -0.8898 0.2823
vn -0.3771 -0.9003 0.2174
vn -0.5877 -0.7979 0.1343
vn -0.4428 -0.8601 0.2535
vn -0.5557 -0.7835 0.2780
vn -0.5553 -0.7823 0.2822
vn -0.5597 -0.7815 0.2759
vn -0.5618 -0.7792 0.2779
vn -0.5145 -0.7908 0.3315
vn -0.5230 -0.7926 0.3134
vn -0.5455 -0.7955 0.2640
vn -0.5389 -0.7810 0.3155
vn -0.2144 0.9671 -0.1366
vn -0.2865 0.9569 -0.0485
vn -0.1781 0.9839 -0.0119
vn -0.1382 0.9888 -0.0559
vn -0.1732 0.9847 -0.0173
vn -0.2094 0.9776 0.0226
vn -0.0348 0.9994 0.0066
vn -0.0569 0.9979 0.0294
vn -0.0422 0.9990 0.0135
vn -0.0180 0.9998 -0.0112
vn -0.0834 0.9948 -0.0585
vn -0.1041 0.9940 -0.0348
vn -0.0780 0.9948 -0.0652
vn -0.0570 0.9941 -0.0927
vn -0.9111 0.4102 0.0401
vn -0.8756 0.4800 0.0541
vn -0.9351 -0.2596 0.2413
vn -0.9350 -0.2441 0.2574
vn -0.9334 -0.2478 0.2596
vn -0.9385 -0.2406 0.2476
vn -0.9314 -0.2476 0.2668
vn -0.9313 -0.2490 0.2661
vn -0.8280 0.5409 0.1478
vn -0.8775 0.4649 0.1180
vn -0.6914 0.7201 -0.0586
vn -0.7246 0.6890 -0.0132
vn -0.5530 0.8331 -0.0133
vn -0.6626 0.7347 0.1455
vn -0.6626 0.7347 0.1456
vn -0.4147 0.9087 0.0468
vn -0.3661 0.9305 -0.0108
vn -0.5258 0.8505 -0.0136
vn -0.4020 0.9017 -0.1590
vn -0.1578 0.8455 -0.5101
vn -0.0822 0.8188 -0.5682
vn -0.1093 0.7595 -0.6412
vn -0.1486 0.7773 -0.6113
vn -0.3295 0.6921 -0.6422
vn -0.3974 0.7113 -0.5798
vn -0.3997 0.7690 -0.4988
vn -0.3550 0.7634 -0.5396
vn -0.3194 -0.9358 0.1495
vn -0.2504 -0.9410 0.2276
vn -0.3818 -0.9032 0.1963
vn -0.2922 -0.9131 0.2843
vn -0.4415 -0.8351 0.3281
vn -0.5536 -0.7961 0.2445
vn -0.3584 -0.8884 0.2869
vn -0.5224 -0.8396 0.1491
vn -0.2980 0.8531 -0.4282
vn -0.4141 0.8555 -0.3110
vn -0.2579 0.9142 -0.3125
vn -0.3427 0.9146 -0.2148
vn -0.1695 0.9723 -0.1606
vn -0.0976 0.9617 -0.2560
vn -0.1425 0.9273 -0.3462
vn -0.1576 0.9300 -0.3322
vn -0.4814 0.3888 -0.7855
vn -0.3215 0.5009 -0.8036
vn -0.1856 0.2648 -0.9463
vn -0.1744 0.2707 -0.9467
vn -0.1849 0.2650 -0.9464
vn -0.1979 0.2583 -0.9456
vn -0.4172 -0.3255 -0.8485
vn -0.2863 -0.2600 -0.9222
vn -0.6241 -0.3244 -0.7108
vn -0.4917 -0.2419 -0.8365
vn -0.7143 0.6824 -0.1550
vn -0.7542 0.6345 -0.1690
vn -0.5102 0.8243 -0.2455
vn -0.5075 0.8264 -0.2439
vn -0.5078 0.8262 -0.2440
vn -0.5104 0.8241 -0.2457
vn -0.5161 0.7476 -0.4181
vn -0.4747 0.7893 -0.3893
vn -0.7476 0.5626 -0.3529
vn -0.7202 0.6029 -0.3431
vn -0.3230 -0.9036 -0.2812
vn -0.3506 -0.8808 -0.3182
vn -0.2741 -0.9602 0.0536
vn -0.2348 -0.9673 0.0965
vn -0.3144 -0.9343 0.1679
vn -0.4961 -0.8682 -0.0087
vn -0.5756 -0.6973 -0.4272
vn -0.5740 -0.6973 -0.4292
vn -0.5737 -0.6981 -0.4284
vn -0.5681 -0.7069 -0.4214
vn -0.7352 -0.4551 -0.5024
vn -0.7566 -0.1432 -0.6380
vn -0.7567 -0.1432 -0.6379
vn -0.8850 -0.4227 -0.1949
vn -0.6240 -0.7566 0.1954
vn -0.8444 0.3736 -0.3839
vn -0.8734 0.3427 -0.3460
vn -0.7365 0.5452 -0.4004
vn -0.7998 0.4367 -0.4119
vn -0.4951 0.7214 -0.4842
vn -0.4643 0.7536 -0.4653
vn -0.4082 0.5515 -0.7275
vn -0.3688 0.6694 -0.6449
vn -0.7506 -0.1256 -0.6487
vn -0.7336 0.1349 -0.6661
vn -0.9514 -0.3072 -0.0204
vn -0.8339 -0.5162 0.1953
vn -0.9637 -0.2408 0.1158
vn -0.9240 -0.3296 0.1941
vn -0.9364 0.3494 -0.0345
vn -0.9044 0.4139 -0.1037
vn -0.9079 0.3495 -0.2315
vn -0.8915 0.3715 -0.2591
vn -0.9029 0.3565 -0.2403
vn -0.9188 0.3333 -0.2114
usemtl Default_OBJ.003
s 1
f 1/1/1 2/2/2 3/3/3
f 3/3/3 4/4/4 1/1/1
f 2/2/5 5/5/6 6/6/7
f 6/6/7 3/3/8 2/2/5
f 7/7/9 8/8/10 3/3/11
f 3/3/11 6/6/12 7/7/9
f 8/8/13 9/9/14 4/4/4
f 4/4/4 3/3/3 8/8/13
f 10/10/15 11/11/16 12/12/17
f 12/12/18 13/13/19 10/10/20
f 11/11/21 1/14/22 4/15/23
f 4/15/24 12/12/24 11/11/24
f 9/16/25 14/17/26 12/12/27
f 12/12/27 4/15/28 9/16/25
f 14/17/29 15/18/30 13/13/31
f 13/13/19 12/12/18 14/17/32
f 16/19/33 17/20/34 18/21/35
f 18/21/35 19/22/36 16/19/33
f 17/20/37 20/23/38 21/24/39
f 21/24/39 18/21/40 17/20/37
f 5/5/6 2/2/5 18/21/41
f 18/21/41 21/24/42 5/5/6
f 2/2/2 1/1/1 19/22/43
f 19/22/43 18/21/44 2/2/2
f 22/25/45 23/26/45 24/27/45
f 24/27/46 25/28/47 22/25/48
f 23/26/49 16/29/50 19/30/51
f 19/30/43 24/27/52 23/26/53
f 1/14/22 11/11/21 24/27/54
f 24/27/52 19/30/43 1/14/1
f 11/11/16 10/10/15 25/28/55
f 25/28/47 24/27/46 11/11/56
f 26/31/57 27/32/58 28/33/59
f 28/33/59 29/34/60 26/31/57
f 27/32/61 30/35/62 31/36/63
f 31/36/63 28/33/64 27/32/61
f 20/23/65 17/20/65 28/33/65
f 28/33/66 31/36/66 20/23/66
f 17/20/67 16/19/68 29/34/69
f 29/34/69 28/33/70 17/20/67
f 32/37/71 33/38/72 34/39/73
f 34/39/73 35/40/74 32/37/71
f 33/38/75 26/41/76 29/42/77
f 29/42/77 34/39/78 33/38/75
f 16/29/50 23/26/49 34/39/79
f 34/39/79 29/42/80 16/29/50
f 23/26/81 22/25/82 35/40/83
f 35/40/83 34/39/84 23/26/81
f 36/43/85 37/44/86 38/45/87
f 38/45/87 39/46/88 36/43/85
f 37/44/89 30/35/90 27/32/91
f 27/32/91 38/45/92 37/44/89
f 26/31/93 40/47/94 38/45/95
f 38/45/95 27/32/96 26/31/93
f 40/47/97 41/48/98 39/46/99
f 39/46/99 38/45/100 40/47/97
f 41/49/101 40/50/102 42/51/103
f 42/51/103 43/52/104 41/49/101
f 40/50/105 26/41/105 33/38/105
f 33/38/106 42/51/106 40/50/106
f 32/37/107 44/53/107 42/51/107
f 42/51/108 33/38/108 32/37/108
f 44/53/109 45/54/109 43/52/109
f 43/52/110 42/51/110 44/53/110
f 46/55/111 47/56/112 48/57/113
f 48/57/114 49/58/115 46/55/116
f 47/56/117 36/43/117 39/46/117
f 39/46/118 48/57/113 47/56/112
f 41/48/119 50/59/120 48/57/121
f 48/57/121 39/46/122 41/48/119
f 50/59/123 51/60/124 49/58/125
f 49/58/125 48/57/126 50/59/123
f 51/61/124 50/62/123 52/63/127
f 52/63/127 53/64/128 51/61/124
f 50/62/120 41/49/119 43/52/129
f 43/52/129 52/63/130 50/62/120
f 45/54/131 54/65/132 52/63/133
f 52/63/134 43/52/134 45/54/134
f 54/65/132 55/66/135 53/64/136
f 53/64/136 52/63/133 54/65/132
f 56/67/137 57/68/137 58/69/137
f 58/69/138 59/70/138 56/67/138
f 57/68/139 46/55/116 49/58/115
f 49/58/115 58/69/140 57/68/139
f 51/60/141 60/71/142 58/69/143
f 58/69/144 49/58/125 51/60/124
f 60/71/145 61/72/145 59/70/145
f 59/70/146 58/69/146 60/71/146
f 62/73/147 63/74/147 64/75/147
f 64/76/148 65/77/148 62/78/148
f 63/74/149 56/67/149 59/70/149
f 59/70/150 64/75/150 63/74/150
f 61/79/151 66/80/151 64/76/151
f 64/75/152 59/70/152 61/72/152
f 66/80/153 67/81/153 65/77/153
f 65/77/154 64/76/154 66/80/154
f 61/79/155 60/82/156 68/83/157
f 68/83/157 66/80/158 61/79/155
f 60/82/142 51/61/141 53/64/159
f 53/64/160 68/83/161 60/82/162
f 55/66/163 69/84/163 68/83/163
f 68/83/161 53/64/160 55/66/164
f 69/84/165 67/81/165 66/80/165
f 66/80/166 68/83/166 69/84/166
f 70/85/167 71/86/168 72/87/169
f 72/87/169 73/88/170 70/85/167
f 71/86/171 74/89/171 75/90/171
f 75/90/172 72/87/172 71/86/172
f 15/18/30 14/17/29 72/87/173
f 72/87/174 75/90/174 15/18/174
f 14/17/175 9/16/176 73/88/177
f 73/88/177 72/87/178 14/17/175
f 76/91/179 77/92/179 78/93/179
f 78/93/180 79/94/180 76/91/180
f 77/92/181 70/95/182 73/96/183
f 73/96/183 78/93/184 77/92/181
f 9/9/185 8/8/186 78/93/187
f 78/93/187 73/96/188 9/9/185
f 8/8/189 7/7/190 79/94/191
f 79/94/191 78/93/192 8/8/189
f 80/97/193 81/98/193 82/99/193
f 82/99/194 83/100/194 80/97/194
f 81/98/195 84/101/196 85/102/197
f 85/102/197 82/99/198 81/98/195
f 70/95/199 77/92/199 82/99/199
f 82/99/200 85/102/200 70/95/200
f 77/92/201 76/91/201 83/100/201
f 83/100/202 82/99/202 77/92/202
f 86/103/203 87/104/204 88/105/205
f 88/105/206 89/106/206 86/103/206
f 87/104/207 90/107/207 91/108/207
f 91/108/208 88/105/205 87/104/204
f 84/101/209 81/98/209 88/105/209
f 88/105/210 91/108/211 84/101/210
f 81/98/212 80/97/213 89/106/214
f 89/106/214 88/105/215 81/98/212
f 80/97/216 83/100/216 92/109/216
f 92/109/217 93/110/217 80/97/217
f 83/100/218 76/91/218 94/111/218
f 94/111/219 92/109/219 83/100/219
f 95/112/220 93/110/220 92/109/220
f 92/109/221 94/111/221 95/112/221
f 96/113/222 97/114/223 98/115/223
f 98/115/224 99/116/224 96/113/224
f 97/114/225 86/103/225 89/106/225
f 89/106/226 98/115/226 97/114/226
f 80/97/227 93/110/227 98/115/227
f 98/115/228 89/106/228 80/97/228
f 93/110/229 95/112/229 99/116/229
f 99/116/230 98/115/231 93/110/231
f 100/117/232 101/118/233 102/119/234
f 102/119/234 103/120/235 100/117/232
f 101/118/236 104/121/237 105/122/238
f 105/122/238 102/119/239 101/118/236
f 90/107/240 87/104/241 102/119/242
f 102/119/243 105/122/243 90/107/243
f 87/104/244 86/103/244 103/120/245
f 103/120/246 102/119/242 87/104/241
f 95/112/247 94/111/247 106/123/247
f 106/123/248 107/124/248 95/112/248
f 94/111/249 76/91/249 79/94/249
f 79/94/250 106/123/251 94/111/252
f 7/7/253 108/125/254 106/123/251
f 106/123/251 79/94/250 7/7/253
f 108/125/255 109/126/256 107/124/257
f 107/124/258 106/123/258 108/125/258
f 110/127/259 111/128/260 112/129/261
f 112/129/261 113/130/262 110/127/259
f 111/128/263 100/117/264 103/120/265
f 103/120/265 112/129/266 111/128/263
f 86/103/267 97/114/268 112/129/269
f 112/129/269 103/120/270 86/103/267
f 97/114/271 96/113/272 113/130/273
f 113/130/273 112/129/274 97/114/271
f 110/127/275 113/130/276 114/131/277
f 114/131/277 115/132/278 110/127/275
f 113/130/279 96/113/280 99/116/279
f 99/116/281 114/131/281 113/130/281
f 95/112/282 107/124/282 114/131/282
f 114/131/283 99/116/283 95/112/283
f 107/124/284 109/126/285 115/132/286
f 115/132/286 114/131/287 107/124/284
f 116/133/288 117/134/289 118/135/290
f 118/135/290 119/136/291 116/133/288
f 117/134/292 120/137/293 121/138/294
f 121/138/294 118/135/295 117/134/292
f 104/121/296 101/118/297 118/135/295
f 118/135/295 121/138/294 104/121/296
f 101/118/298 100/117/299 119/136/291
f 119/136/291 118/135/290 101/118/298
f 109/126/256 108/125/255 122/139/300
f 122/139/300 123/140/301 109/126/256
f 108/125/254 7/7/253 6/6/302
f 6/6/302 122/139/303 108/125/254
f 5/5/304 124/141/305 122/139/306
f 122/139/306 6/6/307 5/5/304
f 124/141/308 125/142/309 123/140/310
f 123/140/310 122/139/311 124/141/308
f 126/143/312 127/144/312 128/145/312
f 128/145/313 129/146/313 126/143/313
f 127/144/314 116/133/314 119/136/314
f 119/136/315 128/145/315 127/144/315
f 100/117/316 111/128/317 128/145/318
f 128/145/318 119/136/319 100/117/316
f 111/128/320 110/127/321 129/146/322
f 129/146/322 128/145/323 111/128/320
f 126/143/324 129/146/325 130/147/326
f 130/147/327 131/148/327 126/143/327
f 129/146/325 110/127/328 115/132/329
f 115/132/329 130/147/326 129/146/325
f 109/126/330 123/140/331 130/147/332
f 130/147/332 115/132/333 109/126/330
f 123/140/334 125/142/335 131/148/336
f 131/148/337 130/147/337 123/140/337
f 132/149/338 133/150/338 134/151/338
f 134/151/339 135/152/340 132/149/341
f 133/150/342 136/153/343 137/154/344
f 137/154/345 134/151/346 133/150/347
f 120/137/348 117/134/349 134/151/339
f 134/151/346 137/154/345 120/137/350
f 117/134/351 116/133/352 135/152/353
f 135/152/340 134/151/339 117/134/349
f 125/142/354 124/141/354 138/155/354
f 138/155/355 139/156/355 125/142/355
f 124/141/305 5/5/304 21/24/356
f 21/24/357 138/155/357 124/141/357
f 20/23/358 140/157/358 138/155/358
f 138/155/359 21/24/359 20/23/359
f 140/157/360 141/158/360 139/156/360
f 139/156/361 138/155/361 140/157/361
f 142/159/362 143/160/363 144/161/364
f 144/161/364 145/162/365 142/159/362
f 143/160/366 132/149/366 135/152/366
f 135/152/367 144/161/368 143/160/368
f 116/133/369 127/144/369 144/161/369
f 144/161/370 135/152/353 116/133/352
f 127/144/371 126/143/371 145/162/371
f 145/162/365 144/161/364 127/144/372
f 142/159/373 145/162/374 146/163/375
f 146/163/376 147/164/376 142/159/376
f 145/162/377 126/143/377 131/148/377
f 131/148/378 146/163/375 145/162/374
f 125/142/379 139/156/380 146/163/381
f 146/163/382 131/148/336 125/142/335
f 139/156/383 141/158/383 147/164/383
f 147/164/384 146/163/381 139/156/380
f 148/165/385 149/166/385 150/167/385
f 150/167/386 151/168/386 148/165/386
f 149/166/387 152/169/387 153/170/387
f 153/170/388 150/167/388 149/166/388
f 136/153/389 133/150/390 150/167/391
f 150/167/391 153/170/392 136/153/389
f 133/150/393 132/149/394 151/168/395
f 151/168/395 150/167/396 133/150/393
f 141/158/397 140/157/397 154/171/397
f 154/171/398 155/172/398 141/158/398
f 140/157/399 20/23/399 31/36/399
f 31/36/400 154/171/400 140/157/400
f 30/35/401 156/173/402 154/171/403
f 154/171/403 31/36/404 30/35/401
f 156/173/405 157/174/406 155/172/407
f 155/172/407 154/171/408 156/173/405
f 158/175/409 159/176/409 160/177/409
f 160/177/410 161/178/410 158/175/410
f 159/176/411 148/165/411 151/168/411
f 151/168/412 160/177/412 159/176/412
f 132/149/413 143/160/413 160/177/413
f 160/177/414 151/168/414 132/149/414
f 143/160/415 142/159/415 161/178/415
f 161/178/416 160/177/416 143/160/416
f 158/175/417 161/178/418 162/179/419
f 162/179/419 163/180/420 158/175/417
f 161/178/421 142/159/421 147/164/421
f 147/164/422 162/179/422 161/178/422
f 141/158/423 155/172/424 162/179/425
f 162/179/425 147/164/426 141/158/423
f 155/172/427 157/174/428 163/180/429
f 163/180/429 162/179/430 155/172/427
f 164/181/431 165/182/431 166/183/431
f 166/183/432 167/184/432 164/181/432
f 165/182/433 152/169/433 149/166/433
f 149/166/434 166/183/434 165/182/434
f 148/165/435 168/185/436 166/183/437
f 166/183/438 149/166/438 148/165/438
f 168/185/439 169/186/439 167/184/439
f 167/184/440 166/183/437 168/185/436
f 170/187/441 171/188/441 172/189/441
f 172/189/442 173/190/443 170/187/444
f 171/188/445 157/174/445 156/173/445
f 156/173/446 172/189/446 171/188/446
f 30/35/447 37/44/447 172/189/447
f 172/189/448 156/173/448 30/35/448
f 37/44/449 36/43/449 173/190/449
f 173/190/450 172/189/450 37/44/450
f 158/175/451 163/180/452 174/191/453
f 174/191/453 175/192/454 158/175/451
f 163/180/455 157/174/456 171/188/457
f 171/188/457 174/191/458 163/180/455
f 170/187/459 176/193/460 174/191/458
f 174/191/458 171/188/457 170/187/459
f 176/193/461 177/194/461 175/192/461
f 175/192/462 174/191/462 176/193/462
f 169/186/463 168/185/463 178/195/463
f 178/195/464 179/196/464 169/186/464
f 168/185/465 148/165/465 159/176/465
f 159/176/466 178/195/466 168/185/466
f 158/175/467 175/192/467 178/195/467
f 178/195/468 159/176/468 158/175/468
f 175/192/469 177/194/469 179/196/469
f 179/196/470 178/195/470 175/192/470
f 180/197/471 181/198/471 182/199/471
f 182/199/472 183/200/473 180/197/474
f 181/198/475 184/201/475 185/202/475
f 185/202/476 182/199/476 181/198/476
f 62/73/477 186/203/478 182/199/479
f 182/199/479 185/202/480 62/73/477
f 186/203/481 187/204/481 183/200/481
f 183/200/473 182/199/472 186/203/482
f 187/204/483 188/205/483 189/206/483
f 189/206/484 183/200/485 187/204/486
f 188/205/487 164/181/487 167/184/487
f 167/184/488 189/206/488 188/205/488
f 169/186/489 190/207/489 189/206/489
f 189/206/490 167/184/490 169/186/490
f 190/207/491 180/197/491 183/200/491
f 183/200/485 189/206/484 190/207/492
f 191/208/493 192/209/493 193/210/493
f 193/210/494 194/211/494 191/208/494
f 192/209/495 170/187/444 173/190/443
f 173/190/443 193/210/496 192/209/495
f 36/43/497 47/56/498 193/210/499
f 193/210/499 173/190/500 36/43/497
f 47/56/501 46/55/501 194/211/501
f 194/211/502 193/210/499 47/56/498
f 195/212/503 196/213/503 197/214/503
f 197/214/504 198/215/504 195/212/504
f 196/213/505 56/67/505 63/74/505
f 63/74/506 197/214/506 196/213/506
f 62/73/507 185/202/507 197/214/507
f 197/214/508 63/74/508 62/73/508
f 185/202/509 184/201/509 198/215/509
f 198/215/510 197/214/510 185/202/510
f 180/197/511 190/207/511 199/216/511
f 199/216/512 200/217/512 180/197/512
f 190/207/513 169/186/513 179/196/513
f 179/196/514 199/216/514 190/207/514
f 177/194/515 201/218/515 199/216/515
f 199/216/516 179/196/516 177/194/516
f 201/218/517 202/219/517 200/217/517
f 200/217/518 199/216/518 201/218/518
f 202/219/519 203/220/519 204/221/519
f 204/221/520 205/222/520 202/219/520
f 203/220/521 191/208/521 206/223/521
f 206/223/522 204/221/522 203/220/522
f 195/212/523 205/222/523 204/221/523
f 204/221/524 206/223/524 195/212/524
f 195/212/525 206/223/525 207/224/525
f 207/224/526 196/213/526 195/212/526
f 206/223/527 191/208/527 194/211/527
f 194/211/528 207/224/528 206/223/528
f 46/55/529 57/68/529 207/224/529
f 207/224/530 194/211/530 46/55/530
f 57/68/531 56/67/532 196/213/533
f 196/213/533 207/224/534 57/68/531
f 195/212/535 198/215/535 208/225/535
f 208/225/536 205/222/536 195/212/536
f 198/215/537 184/201/537 181/198/537
f 181/198/538 208/225/538 198/215/538
f 180/197/539 200/217/539 208/225/539
f 208/225/540 181/198/540 180/197/540
f 200/217/541 202/219/541 205/222/541
f 205/222/542 208/225/542 200/217/542
f 177/194/543 176/193/543 209/226/543
f 209/226/544 201/218/544 177/194/544
f 176/193/545 170/187/546 192/209/547
f 192/209/547 209/226/548 176/193/545
f 191/208/549 203/220/549 209/226/549
f 209/226/550 192/209/550 191/208/550
f 203/220/551 202/219/551 201/218/551
f 201/218/552 209/226/552 203/220/552
f 84/227/553 91/228/553 210/229/553
f 210/229/554 211/230/554 84/227/554
f 91/228/555 90/231/555 212/232/555
f 212/232/556 210/229/556 91/228/556
f 213/233/557 211/230/557 210/229/557
f 210/229/558 212/232/558 213/233/558
f 214/234/559 215/235/560 216/236/561
f 216/236/561 217/237/562 214/234/559
f 215/235/563 74/89/563 71/86/563
f 71/86/564 216/236/564 215/235/564
f 70/85/565 85/238/565 216/236/565
f 216/236/566 71/86/566 70/85/566
f 85/238/567 84/227/567 217/237/567
f 217/237/568 216/236/568 85/238/568
f 214/234/569 217/237/569 218/239/569
f 218/239/570 219/240/570 214/234/570
f 217/237/571 84/227/572 211/230/572
f 211/230/573 218/239/573 217/237/573
f 213/233/574 220/241/574 218/239/574
f 218/239/575 211/230/575 213/233/575
f 220/241/576 221/242/576 219/240/576
f 219/240/577 218/239/577 220/241/577
f 222/243/578 223/244/579 224/245/580
f 224/245/580 225/246/581 222/243/578
f 223/244/582 15/18/582 75/90/582
f 75/90/583 224/245/583 223/244/583
f 74/89/584 215/235/585 224/245/586
f 224/245/586 75/90/587 74/89/584
f 215/235/588 214/234/588 225/246/588
f 225/246/589 224/245/589 215/235/589
f 213/233/590 212/232/590 226/247/590
f 226/247/591 227/248/591 213/233/591
f 212/232/592 90/231/592 105/249/592
f 105/249/593 226/247/593 212/232/593
f 104/250/237 228/251/594 226/247/595
f 226/247/595 105/249/238 104/250/237
f 228/251/596 229/252/597 227/248/598
f 227/248/598 226/247/599 228/251/596
f 230/253/600 231/254/601 232/255/602
f 232/255/602 233/256/603 230/253/600
f 231/254/604 222/243/605 225/246/606
f 225/246/606 232/255/607 231/254/604
f 214/234/608 219/240/609 232/255/610
f 232/255/610 225/246/611 214/234/608
f 219/240/612 221/242/612 233/256/612
f 233/256/613 232/255/613 219/240/613
f 230/253/614 233/256/615 234/257/616
f 234/257/616 235/258/617 230/253/614
f 233/256/618 221/242/618 220/241/618
f 220/241/619 234/257/619 233/256/619
f 213/233/620 227/248/620 234/257/620
f 234/257/621 220/241/621 213/233/621
f 227/248/622 229/252/623 235/258/624
f 235/258/624 234/257/625 227/248/622
f 236/259/626 237/260/627 238/261/628
f 238/261/628 239/262/629 236/259/626
f 237/260/630 10/10/631 13/13/632
f 13/13/632 238/261/633 237/260/630
f 15/18/634 223/244/634 238/261/634
f 238/261/635 13/13/635 15/18/635
f 223/244/636 222/243/637 239/262/638
f 239/262/638 238/261/639 223/244/636
f 229/252/640 228/251/641 240/263/642
f 240/263/642 241/264/643 229/252/640
f 228/251/644 104/250/645 121/265/646
f 121/265/646 240/263/647 228/251/644
f 120/266/648 242/267/649 240/263/647
f 240/263/647 121/265/646 120/266/648
f 242/267/650 243/268/651 241/264/643
f 241/264/643 240/263/642 242/267/650
f 244/269/652 245/270/652 246/271/652
f 246/271/653 247/272/654 244/269/655
f 245/270/656 236/259/657 239/262/658
f 239/262/659 246/271/659 245/270/659
f 222/243/660 231/254/661 246/271/662
f 246/271/662 239/262/663 222/243/660
f 231/254/664 230/253/665 247/272/654
f 247/272/654 246/271/653 231/254/664
f 244/269/666 247/272/667 248/273/668
f 248/273/668 249/274/669 244/269/666
f 247/272/670 230/253/670 235/258/670
f 235/258/671 248/273/671 247/272/671
f 229/252/672 241/264/673 248/273/674
f 248/273/674 235/258/675 229/252/672
f 241/264/676 243/268/676 249/274/676
f 249/274/677 248/273/674 241/264/673
f 250/275/678 251/276/678 252/277/678
f 252/277/679 253/278/680 250/275/681
f 251/276/682 22/25/683 25/28/684
f 25/28/685 252/277/685 251/276/685
f 10/10/686 237/260/686 252/277/686
f 252/277/687 25/28/687 10/10/687
f 237/260/688 236/259/688 253/278/688
f 253/278/680 252/277/679 237/260/689
f 243/268/651 242/267/650 254/279/690
f 254/279/691 255/280/691 243/268/691
f 242/267/692 120/266/692 137/281/692
f 137/281/693 254/279/693 242/267/693
f 136/282/694 256/283/694 254/279/694
f 254/279/695 137/281/344 136/282/343
f 256/283/696 257/284/696 255/280/696
f 255/280/697 254/279/697 256/283/697
f 258/285/698 259/286/698 260/287/698
f 260/287/699 261/288/700 258/285/701
f 259/286/702 250/275/702 253/278/702
f 253/278/703 260/287/703 259/286/703
f 236/259/657 245/270/656 260/287/704
f 260/287/705 253/278/705 236/259/705
f 245/270/706 244/269/706 261/288/706
f 261/288/700 260/287/699 245/270/707
f 258/285/708 261/288/709 262/289/710
f 262/289/711 263/290/711 258/285/711
f 261/288/712 244/269/712 249/274/712
f 249/274/713 262/289/710 261/288/709
f 243/268/714 255/280/715 262/289/716
f 262/289/717 249/274/717 243/268/717
f 255/280/718 257/284/718 263/290/718
f 263/290/719 262/289/716 255/280/715
f 264/291/720 265/292/720 266/293/720
f 266/293/721 267/294/721 264/291/721
f 265/292/722 32/37/723 35/40/724
f 35/40/724 266/293/725 265/292/722
f 22/25/683 251/276/682 266/293/726
f 266/293/727 35/40/727 22/25/727
f 251/276/728 250/275/728 267/294/728
f 267/294/729 266/293/729 251/276/729
f 257/284/730 256/283/730 268/295/730
f 268/295/731 269/296/731 257/284/731
f 256/283/732 136/282/733 153/297/734
f 153/297/734 268/295/735 256/283/732
f 152/298/736 270/299/737 268/295/738
f 268/295/738 153/297/739 152/298/736
f 270/299/740 271/300/740 269/296/740
f 269/296/741 268/295/741 270/299/741
f 272/301/742 273/302/742 274/303/742
f 274/303/743 275/304/743 272/301/743
f 273/302/744 264/291/744 267/294/744
f 267/294/745 274/303/745 273/302/745
f 250/275/746 259/286/746 274/303/746
f 274/303/747 267/294/747 250/275/747
f 259/286/748 258/285/748 275/304/748
f 275/304/749 274/303/750 259/286/749
f 272/301/751 275/304/751 276/305/751
f 276/305/752 277/306/752 272/301/752
f 275/304/753 258/285/753 263/290/753
f 263/290/754 276/305/754 275/304/754
f 257/284/755 269/296/756 276/305/757
f 276/305/757 263/290/758 257/284/755
f 269/296/759 271/300/759 277/306/759
f 277/306/760 276/305/760 269/296/760
f 45/54/761 44/53/761 278/307/761
f 278/307/762 279/308/763 45/54/764
f 44/53/765 32/37/765 265/292/765
f 265/292/766 278/307/766 44/53/766
f 264/291/767 280/309/768 278/307/769
f 278/307/769 265/292/770 264/291/767
f 280/309/771 281/310/772 279/308/773
f 279/308/774 278/307/774 280/309/774
f 282/311/775 283/312/775 284/313/775
f 284/313/776 285/314/776 282/311/776
f 283/312/777 271/300/778 270/299/779
f 270/299/779 284/313/780 283/312/777
f 152/298/781 165/315/782 284/313/783
f 284/313/783 270/299/784 152/298/781
f 165/315/785 164/316/786 285/314/787
f 285/314/787 284/313/788 165/315/785
f 286/317/789 287/318/789 288/319/789
f 288/319/790 289/320/790 286/317/790
f 287/318/791 281/310/791 280/309/791
f 280/309/792 288/319/793 287/318/794
f 264/291/795 273/302/796 288/319/793
f 288/319/793 280/309/792 264/291/795
f 273/302/797 272/301/797 289/320/797
f 289/320/798 288/319/798 273/302/798
f 286/317/799 289/320/799 290/321/799
f 290/321/800 291/322/800 286/317/800
f 289/320/801 272/301/801 277/306/801
f 277/306/802 290/321/803 289/320/803
f 271/300/804 283/312/804 290/321/804
f 290/321/805 277/306/805 271/300/805
f 283/312/806 282/311/806 291/322/806
f 291/322/807 290/321/807 283/312/807
f 187/323/808 186/324/808 292/325/808
f 292/325/809 293/326/809 187/323/809
f 186/324/810 62/78/810 294/327/810
f 294/327/811 292/325/811 186/324/811
f 295/328/812 296/329/812 292/325/812
f 292/325/813 294/327/813 295/328/813
f 296/329/814 297/330/814 293/326/814
f 293/326/815 292/325/815 296/329/815
f 55/66/816 54/65/816 298/331/816
f 298/331/817 299/332/817 55/66/817
f 54/65/818 45/54/764 279/308/763
f 279/308/819 298/331/819 54/65/819
f 281/310/820 300/333/820 298/331/820
f 298/331/821 279/308/773 281/310/772
f 300/333/822 301/334/822 299/332/822
f 299/332/823 298/331/823 300/333/823
f 297/330/824 302/335/824 303/336/824
f 303/336/825 293/326/825 297/330/825
f 302/335/826 282/311/826 285/314/826
f 285/314/827 303/336/827 302/335/827
f 164/316/828 188/337/828 303/336/828
f 303/336/829 285/314/829 164/316/829
f 188/337/830 187/323/830 293/326/830
f 293/326/831 303/336/831 188/337/831
f 295/328/832 294/327/832 304/338/832
f 304/338/833 305/339/833 295/328/833
f 294/327/834 62/78/835 65/77/836
f 65/77/836 304/338/837 294/327/834
f 67/81/838 306/340/838 304/338/838
f 304/338/839 65/77/839 67/81/839
f 306/340/840 307/341/840 305/339/840
f 305/339/841 304/338/841 306/340/841
f 286/317/842 291/322/842 308/342/842
f 308/342/843 309/343/843 286/317/843
f 291/322/844 282/311/845 302/335/846
f 302/335/846 308/342/847 291/322/844
f 297/330/848 310/344/848 308/342/848
f 308/342/849 302/335/849 297/330/849
f 310/344/850 311/345/850 309/343/850
f 309/343/851 308/342/851 310/344/851
f 67/81/852 69/84/852 312/346/852
f 312/346/853 306/340/853 67/81/853
f 69/84/854 55/66/854 299/332/854
f 299/332/855 312/346/855 69/84/855
f 301/334/856 313/347/856 312/346/856
f 312/346/857 299/332/857 301/334/857
f 313/347/858 307/341/859 306/340/860
f 306/340/860 312/346/861 313/347/858
f 307/341/862 313/347/862 314/348/862
f 314/348/863 315/349/864 307/341/863
f 313/347/865 301/334/865 316/350/865
f 316/350/866 314/348/866 313/347/866
f 311/345/867 315/349/867 314/348/867
f 314/348/868 316/350/868 311/345/868
f 311/345/869 310/344/869 317/351/869
f 317/351/870 315/349/870 311/345/870
f 310/344/871 297/330/871 296/329/871
f 296/329/872 317/351/872 310/344/872
f 295/328/873 305/339/873 317/351/873
f 317/351/874 296/329/874 295/328/874
f 305/339/875 307/341/875 315/349/875
f 315/349/876 317/351/876 305/339/876
f 301/334/877 300/333/877 318/352/877
f 318/352/878 316/350/878 301/334/878
f 300/333/879 281/310/879 287/318/879
f 287/318/880 318/352/880 300/333/880
f 286/317/881 309/343/881 318/352/881
f 318/352/882 287/318/882 286/317/882
f 309/343/883 311/345/884 316/350/885
f 316/350/885 318/352/886 309/343/883
