# Blender 4.3.2
# www.blender.org
mtllib tongue_wellpositioned_0506.mtl
o TONGUE.002
v 0.000231 -0.057943 0.010710
v 0.002927 -0.058025 0.010652
v 0.002823 -0.058064 0.016127
v 0.000089 -0.058028 0.016180
v 0.006689 -0.057233 0.010867
v 0.006360 -0.057263 0.016348
v 0.006111 -0.057361 0.021329
v 0.002842 -0.058126 0.021105
v 0.000056 -0.058155 0.021347
v -0.006835 -0.056532 0.011292
v -0.002931 -0.057835 0.010812
v -0.002708 -0.057882 0.016294
v -0.006347 -0.056805 0.016773
v -0.002404 -0.058045 0.021280
v -0.005759 -0.057173 0.021755
v 0.000223 -0.057706 -0.001786
v 0.003852 -0.057773 -0.001903
v 0.003340 -0.057739 0.004647
v 0.000136 -0.057678 0.004729
v 0.008232 -0.056993 -0.001694
v 0.007378 -0.056959 0.004862
v -0.008257 -0.055823 -0.001164
v -0.003556 -0.057838 -0.001708
v -0.003181 -0.057695 0.004819
v -0.007455 -0.056108 0.005330
v 0.000318 -0.057736 -0.015817
v 0.005007 -0.057925 -0.015735
v 0.004248 -0.058065 -0.009014
v 0.000123 -0.057952 -0.008845
v 0.010600 -0.057504 -0.015541
v 0.009291 -0.057536 -0.008595
v -0.011341 -0.055851 -0.015024
v -0.005107 -0.057986 -0.015786
v -0.004165 -0.058198 -0.008794
v -0.009292 -0.055961 -0.008242
v 0.013435 -0.058242 -0.027351
v 0.011829 -0.057784 -0.021762
v 0.005759 -0.058704 -0.022047
v 0.006784 -0.059165 -0.027780
v 0.000298 -0.058326 -0.022305
v 0.000347 -0.058879 -0.028064
v -0.006393 -0.057701 -0.022030
v -0.007248 -0.058108 -0.028178
v -0.012818 -0.055846 -0.021458
v -0.013882 -0.056741 -0.027277
v 0.013835 -0.059612 -0.039388
v 0.014169 -0.058982 -0.033105
v 0.007368 -0.059605 -0.033699
v 0.007435 -0.060161 -0.040087
v 0.000402 -0.059395 -0.034491
v 0.000443 -0.060177 -0.040759
v -0.006943 -0.058914 -0.034122
v -0.006357 -0.059984 -0.040189
v -0.013639 -0.058218 -0.033600
v -0.012565 -0.059595 -0.039920
v 0.008855 -0.059870 -0.052406
v 0.012203 -0.059971 -0.046561
v 0.006865 -0.060747 -0.047227
v 0.004495 -0.061214 -0.052893
v 0.000560 -0.061143 -0.047443
v 0.000133 -0.061109 -0.052747
v 0.000135 -0.049638 -0.053485
v 0.004498 -0.056590 -0.054706
v 0.000243 -0.059240 -0.054342
v -0.005235 -0.055937 -0.054297
v -0.003193 -0.061094 -0.053044
v -0.008742 -0.059613 -0.052172
v -0.004909 -0.060855 -0.047459
v -0.011527 -0.060279 -0.046832
v 0.000187 -0.058379 0.029508
v -0.002153 -0.058293 0.029468
v -0.001927 -0.058301 0.025786
v 0.000253 -0.058358 0.025662
v -0.004464 -0.057653 0.028833
v -0.004857 -0.057617 0.026224
v 0.005023 -0.057759 0.029624
v 0.002459 -0.058312 0.029512
v 0.002781 -0.058275 0.025617
v 0.005650 -0.057569 0.025829
v 0.004140 -0.056245 0.034017
v 0.001109 -0.056494 0.034442
v 0.001678 -0.057780 0.032637
v 0.004266 -0.057498 0.032487
v -0.002231 -0.056277 0.034572
v -0.001039 -0.057722 0.032509
v 0.004296 -0.050987 0.032498
v 0.001955 -0.050917 0.032698
v 0.001406 -0.053995 0.034375
v 0.004141 -0.053895 0.034005
v -0.000013 -0.050901 0.032746
v 0.000036 -0.053784 0.034657
v 0.006814 -0.056791 0.032179
v 0.007473 -0.055610 0.032976
v 0.008247 -0.056472 0.029987
v 0.010375 -0.054860 0.030738
v 0.009463 -0.051507 0.030854
v 0.007168 -0.051311 0.032021
v 0.007336 -0.053693 0.033095
v 0.010379 -0.053124 0.031251
v 0.005032 -0.046049 0.025531
v 0.002168 -0.045763 0.025655
v 0.002156 -0.048133 0.029675
v 0.004646 -0.048304 0.029546
v 0.000107 -0.045792 0.025715
v -0.000013 -0.048186 0.029735
v 0.009619 -0.055925 0.026463
v 0.012648 -0.054006 0.027289
v 0.010784 -0.055479 0.022016
v 0.014378 -0.053272 0.022949
v 0.012031 -0.048603 0.024731
v 0.008617 -0.046969 0.025247
v 0.007752 -0.048961 0.029241
v 0.010690 -0.050207 0.028755
v 0.012666 -0.052023 0.028079
v 0.014375 -0.050883 0.023910
v 0.005519 -0.041915 0.015619
v 0.002123 -0.041375 0.015756
v 0.002129 -0.043611 0.020984
v 0.005282 -0.044039 0.020837
v 0.000073 -0.041280 0.015698
v 0.000119 -0.043579 0.020919
v 0.011577 -0.055175 0.017057
v 0.015644 -0.052726 0.018037
v 0.012298 -0.054864 0.011601
v 0.016707 -0.052004 0.012649
v 0.014044 -0.045654 0.014798
v 0.009885 -0.043315 0.015351
v 0.009267 -0.045226 0.020529
v 0.013070 -0.047241 0.019971
v 0.015673 -0.049968 0.019074
v 0.016809 -0.048819 0.013806
v 0.006432 -0.037046 0.004058
v 0.002909 -0.036741 0.003998
v 0.002241 -0.039000 0.010061
v 0.005870 -0.039456 0.010032
v -0.000018 -0.036764 0.004051
v 0.000027 -0.038909 0.009852
v 0.013225 -0.054142 0.005664
v 0.017823 -0.050602 0.006879
v 0.014289 -0.053364 -0.000795
v 0.019026 -0.049038 0.000609
v 0.016428 -0.041014 0.003730
v 0.011602 -0.038388 0.004136
v 0.010655 -0.040839 0.009981
v 0.015182 -0.043329 0.009539
v 0.018029 -0.046885 0.008338
v 0.019329 -0.044863 0.002336
v 0.008539 -0.034030 -0.009318
v 0.003439 -0.033506 -0.009140
v 0.002864 -0.034635 -0.002334
v 0.007288 -0.034934 -0.002321
v -0.000125 -0.033501 -0.008845
v -0.000091 -0.034706 -0.002005
v 0.015426 -0.053108 -0.007817
v 0.020361 -0.048079 -0.006283
v 0.016805 -0.053113 -0.014739
v 0.021873 -0.048078 -0.013271
v 0.019284 -0.039277 -0.010519
v 0.014263 -0.035993 -0.009738
v 0.012745 -0.036514 -0.002463
v 0.017723 -0.039457 -0.003090
v 0.020705 -0.043580 -0.004535
v 0.022268 -0.043553 -0.011780
v -0.000343 -0.033548 -0.022668
v -0.000242 -0.033300 -0.015884
v 0.004251 -0.033538 -0.016626
v 0.005205 -0.034155 -0.024109
v 0.010249 -0.034687 -0.017146
v 0.012177 -0.036213 -0.025078
v 0.024007 -0.049710 -0.026216
v 0.023317 -0.048761 -0.019831
v 0.018618 -0.053578 -0.020903
v 0.020166 -0.054676 -0.026769
v 0.023942 -0.044801 -0.018906
v 0.021353 -0.041059 -0.018157
v 0.024404 -0.045423 -0.025872
v 0.022518 -0.042310 -0.025658
v 0.016325 -0.037410 -0.017614
v 0.018469 -0.039591 -0.025494
v 0.015332 -0.042703 -0.039324
v 0.014851 -0.046751 -0.046140
v 0.007445 -0.043692 -0.045794
v 0.007156 -0.038967 -0.037851
v 0.012837 -0.049699 -0.050107
v 0.007959 -0.049228 -0.051978
v -0.000121 -0.042505 -0.044992
v -0.000212 -0.037316 -0.036362
v -0.000265 -0.034584 -0.029022
v 0.006285 -0.035793 -0.030903
v 0.014151 -0.038950 -0.032387
v 0.023924 -0.054314 -0.039028
v 0.024766 -0.052711 -0.032676
v 0.020666 -0.056041 -0.032798
v 0.019808 -0.057222 -0.039151
v 0.017793 -0.056006 -0.049257
v 0.013435 -0.058344 -0.051442
v 0.009650 -0.055413 -0.053650
v 0.015174 -0.053511 -0.050974
v 0.019979 -0.042602 -0.032785
v 0.020362 -0.046208 -0.039577
v 0.023234 -0.045786 -0.032676
v 0.023059 -0.049010 -0.039172
v 0.024825 -0.051530 -0.038668
v 0.022888 -0.053598 -0.043428
v 0.020917 -0.052542 -0.045107
v 0.021116 -0.056031 -0.045084
v 0.017285 -0.058226 -0.045988
v 0.018804 -0.050067 -0.045961
v 0.025153 -0.049257 -0.032638
v -0.001845 -0.053069 0.034194
v -0.003459 -0.053860 0.034270
v -0.001757 -0.050783 0.032770
v -0.003720 -0.051187 0.032836
v -0.009110 -0.055373 0.031515
v -0.006715 -0.056870 0.030424
v -0.003970 -0.057444 0.031984
v -0.005812 -0.056053 0.033384
v -0.006128 -0.054152 0.033723
v -0.009121 -0.053743 0.032158
v -0.006168 -0.051801 0.032680
v -0.008345 -0.052080 0.031720
v -0.013957 -0.053240 0.024124
v -0.010458 -0.055244 0.022844
v -0.008861 -0.056054 0.027195
v -0.011829 -0.054340 0.028310
v -0.002154 -0.048263 0.029829
v -0.004468 -0.048578 0.029911
v -0.002733 -0.045886 0.025809
v -0.005361 -0.046265 0.025915
v -0.011449 -0.048810 0.025848
v -0.013781 -0.051015 0.025172
v -0.011701 -0.052492 0.029178
v -0.009731 -0.050707 0.029740
v -0.007158 -0.049383 0.029933
v -0.008456 -0.047213 0.026012
v -0.016722 -0.051030 0.014034
v -0.012481 -0.053677 0.012504
v -0.011573 -0.054497 0.017920
v -0.015487 -0.052234 0.019313
v -0.003215 -0.043713 0.021145
v -0.006074 -0.044175 0.021268
v -0.003588 -0.041425 0.015942
v -0.006669 -0.041936 0.016128
v -0.013830 -0.045153 0.016408
v -0.016562 -0.048109 0.015468
v -0.015292 -0.049671 0.020528
v -0.012713 -0.047088 0.021320
v -0.009442 -0.045252 0.021446
v -0.010309 -0.043109 0.016456
v -0.019262 -0.047764 0.002399
v -0.014572 -0.051426 0.000348
v -0.013465 -0.052512 0.006676
v -0.017964 -0.049356 0.008442
v -0.003835 -0.038943 0.010304
v -0.007198 -0.039310 0.010656
v -0.004218 -0.036658 0.004312
v -0.007950 -0.036870 0.004847
v -0.016525 -0.040460 0.005956
v -0.019352 -0.044081 0.004558
v -0.017914 -0.046017 0.010214
v -0.015099 -0.042684 0.011363
v -0.011243 -0.040470 0.011259
v -0.012393 -0.038052 0.005723
v -0.022154 -0.046844 -0.011074
v -0.017377 -0.051144 -0.013473
v -0.015845 -0.050942 -0.006567
v -0.020662 -0.046852 -0.004235
v -0.005020 -0.034658 -0.001955
v -0.009229 -0.034985 -0.001303
v -0.006247 -0.033611 -0.008633
v -0.011110 -0.034257 -0.008033
v -0.019973 -0.038918 -0.008578
v -0.022522 -0.042816 -0.008593
v -0.020881 -0.042905 -0.001709
v -0.017987 -0.039061 -0.000849
v -0.014050 -0.036405 -0.000811
v -0.015665 -0.036048 -0.007914
v -0.019261 -0.052035 -0.019772
v -0.020605 -0.053619 -0.025989
v -0.023718 -0.048136 -0.017733
v -0.024846 -0.050139 -0.024260
v -0.016098 -0.036658 -0.023223
v -0.013683 -0.035043 -0.015579
v -0.007513 -0.033715 -0.015863
v -0.008733 -0.034431 -0.022787
v -0.024010 -0.042917 -0.023368
v -0.025655 -0.046554 -0.023538
v -0.024286 -0.044240 -0.016100
v -0.022165 -0.040478 -0.015149
v -0.018921 -0.037421 -0.015821
v -0.020861 -0.039604 -0.023294
v -0.009061 -0.044043 -0.044775
v -0.009303 -0.039276 -0.037871
v -0.008510 -0.049506 -0.051855
v -0.014278 -0.050079 -0.048604
v -0.016267 -0.047142 -0.044418
v -0.017292 -0.042780 -0.036871
v -0.020530 -0.055716 -0.032647
v -0.019341 -0.057624 -0.039227
v -0.025009 -0.052584 -0.030702
v -0.024126 -0.054913 -0.036810
v -0.017049 -0.039236 -0.029979
v -0.009476 -0.036229 -0.029258
v -0.011426 -0.054809 -0.052693
v -0.017239 -0.053613 -0.049622
v -0.014652 -0.058101 -0.049845
v -0.019625 -0.056146 -0.046371
v -0.022049 -0.042473 -0.030450
v -0.024800 -0.045728 -0.030395
v -0.021921 -0.046068 -0.037036
v -0.024398 -0.049041 -0.036528
v -0.017337 -0.058707 -0.045209
v -0.022111 -0.056584 -0.042335
v -0.024667 -0.054093 -0.040852
v -0.023129 -0.052790 -0.042967
v -0.025776 -0.051892 -0.035870
v -0.020615 -0.050325 -0.045235
v -0.026108 -0.049216 -0.030215
vn -0.0259 -0.9994 -0.0220
vn -0.0319 -0.9990 -0.0325
vn -0.0203 -0.9997 -0.0115
vn -0.0043 -0.9998 -0.0174
vn 0.2164 -0.9762 -0.0130
vn 0.2020 -0.9793 -0.0159
vn 0.2088 -0.9779 0.0046
vn 0.2210 -0.9753 -0.0027
vn 0.2218 -0.9750 -0.0091
vn 0.2281 -0.9735 -0.0129
vn 0.2272 -0.9738 -0.0130
vn 0.2213 -0.9752 -0.0081
vn -0.0003 -0.9998 -0.0190
vn 0.0083 -0.9997 -0.0245
vn -0.3187 -0.9477 -0.0192
vn -0.3177 -0.9481 -0.0105
vn -0.3161 -0.9487 0.0047
vn -0.2861 -0.9580 -0.0199
vn -0.2856 -0.9582 -0.0164
vn -0.2864 -0.9579 -0.0222
vn -0.0351 -0.9992 -0.0196
vn -0.0347 -0.9992 -0.0187
vn -0.0350 -0.9993 -0.0164
vn -0.0524 -0.9986 -0.0064
vn -0.0515 -0.9984 -0.0252
vn -0.0438 -0.9986 -0.0300
vn -0.0452 -0.9986 -0.0288
vn -0.0531 -0.9983 -0.0249
vn -0.2575 -0.9655 -0.0394
vn -0.2561 -0.9662 -0.0293
vn -0.2571 -0.9655 -0.0408
vn -0.2854 -0.9583 -0.0139
vn -0.0136 -0.9999 0.0018
vn -0.0183 -0.9998 0.0038
vn -0.0232 -0.9997 0.0061
vn -0.0189 -0.9998 0.0040
vn 0.1822 -0.9830 0.0235
vn 0.1740 -0.9844 0.0278
vn 0.1798 -0.9834 0.0242
vn 0.1886 -0.9819 0.0198
vn 0.1983 -0.9798 -0.0269
vn 0.1908 -0.9814 -0.0229
vn -0.0003 -0.9996 -0.0292
vn -0.0203 -0.9986 -0.0490
vn -0.3891 -0.9202 0.0423
vn -0.3496 -0.9368 -0.0098
vn -0.3480 -0.9375 0.0046
vn -0.3479 -0.9375 0.0018
vn 0.0350 -0.9990 0.0277
vn 0.0383 -0.9989 0.0272
vn 0.0350 -0.9994 0.0048
vn 0.0039 -0.9999 -0.0106
vn 0.0057 -0.9998 0.0216
vn -0.0348 -0.9992 -0.0219
vn -0.3202 -0.9467 -0.0340
vn -0.3487 -0.9372 -0.0068
vn -0.0322 -0.9990 -0.0296
vn -0.0398 -0.9989 -0.0253
vn -0.0362 -0.9990 -0.0273
vn -0.0287 -0.9991 -0.0318
vn 0.0917 -0.9958 -0.0012
vn 0.0747 -0.9972 0.0095
vn 0.0866 -0.9962 0.0016
vn 0.1050 -0.9944 -0.0089
vn 0.1728 -0.9837 0.0500
vn 0.0963 -0.9910 0.0927
vn -0.0246 -0.9989 0.0390
vn -0.0173 -0.9992 0.0351
vn -0.0187 -0.9992 0.0358
vn -0.0261 -0.9989 0.0399
vn -0.3539 -0.9336 0.0558
vn -0.3224 -0.9465 0.0147
vn -0.3541 -0.9335 0.0570
vn -0.3885 -0.9157 0.1025
vn 0.0497 -0.9982 -0.0326
vn 0.0458 -0.9985 -0.0297
vn 0.0522 -0.9980 -0.0344
vn 0.0563 -0.9977 -0.0376
vn 0.0513 -0.9980 0.0376
vn 0.0576 -0.9978 0.0340
vn -0.3878 -0.9186 0.0764
vn -0.3856 -0.9197 0.0743
vn -0.3887 -0.9181 0.0774
vn -0.3914 -0.9167 0.0802
vn 0.1368 -0.9842 0.1123
vn 0.1432 -0.9822 0.1216
vn 0.1345 -0.9848 0.1095
vn 0.1302 -0.9862 0.1026
vn 0.1070 -0.9893 0.0991
vn 0.0729 -0.9956 0.0592
vn 0.1072 -0.9894 0.0982
vn 0.1421 -0.9802 0.1382
vn -0.0529 -0.9926 0.1094
vn -0.0730 -0.9932 0.0905
vn -0.0645 -0.9931 0.0979
vn -0.0416 -0.9922 0.1179
vn -0.0612 -0.9949 0.0799
vn -0.0484 -0.9943 0.0951
vn -0.0615 -0.9949 0.0794
vn -0.0722 -0.9951 0.0668
vn -0.0949 -0.9916 0.0875
vn -0.0888 -0.9915 0.0948
vn -0.0964 -0.9916 0.0859
vn -0.1019 -0.9916 0.0798
vn 0.0464 -0.9948 0.0903
vn -0.0940 -0.9952 -0.0261
vn -0.2718 -0.9604 0.0616
vn -0.3214 -0.9467 0.0230
vn -0.1749 -0.9678 0.1808
vn -0.2677 -0.9582 0.1007
vn 0.0826 -0.9920 0.0951
vn 0.0835 -0.9930 0.0839
vn 0.0826 -0.9922 0.0933
vn 0.0757 -0.9933 0.0873
vn 0.0966 -0.9932 0.0653
vn 0.0788 -0.9952 0.0576
vn 0.1270 -0.9816 0.1424
vn 0.0838 -0.9931 0.0821
vn -0.0739 -0.9942 0.0776
vn -0.0585 -0.9941 0.0915
vn -0.0432 -0.9963 0.0745
vn -0.0473 -0.9965 0.0694
vn -0.0449 -0.9923 0.1153
vn -0.0140 -0.9923 0.1233
vn -0.0159 -0.9958 0.0897
vn -0.0398 -0.9955 0.0862
vn -0.0353 -0.9882 0.1488
vn -0.0135 -0.9849 0.1724
vn -0.0783 -0.9912 0.1071
vn -0.0582 -0.9896 0.1312
vn -0.0835 -0.9711 0.2236
vn -0.0744 -0.9737 0.2154
vn -0.0880 -0.9803 0.1769
vn -0.1843 -0.9752 0.1228
vn -0.0524 -0.9776 0.2041
vn -0.0761 -0.9808 0.1795
vn 0.1560 -0.9820 -0.1063
vn 0.2990 -0.9531 -0.0465
vn 0.1065 -0.9930 0.0501
vn 0.1349 -0.9884 0.0703
vn 0.0104 -0.9896 0.1434
vn 0.0303 -0.9892 0.1437
vn 0.0571 -0.9880 0.1438
vn -0.0056 -0.9966 0.0822
vn -0.0242 -0.9997 -0.0045
vn 0.0606 -0.9965 0.0568
vn -0.1383 0.0865 -0.9866
vn 0.0457 0.0893 -0.9950
vn 0.2116 -0.3569 -0.9099
vn 0.1462 -0.3612 -0.9210
vn 0.0647 -0.6500 -0.7572
vn -0.0411 -0.6472 -0.7612
vn -0.2287 -0.3144 -0.9213
vn -0.1899 -0.3022 -0.9342
vn -0.0322 -0.9993 0.0168
vn -0.0526 -0.9986 -0.0022
vn -0.0345 -0.9993 0.0166
vn -0.0081 -0.9992 0.0403
vn -0.0161 -0.9896 0.1427
vn -0.0535 -0.9927 0.1084
vn -0.0566 -0.9926 0.1077
vn -0.0526 -0.9927 0.1085
vn -0.0782 -0.9932 0.0865
vn -0.0575 -0.9925 0.1075
vn -0.2868 -0.9207 -0.2648
vn -0.0851 -0.9962 0.0165
vn -0.0276 -0.9996 -0.0060
vn -0.0367 -0.9993 -0.0001
vn -0.0362 -0.9993 -0.0007
vn -0.0271 -0.9996 -0.0057
vn -0.2739 -0.9613 0.0280
vn -0.2285 -0.9735 -0.0123
vn -0.2552 -0.9665 -0.0279
vn -0.2340 -0.9710 -0.0492
vn -0.0456 -0.9980 -0.0438
vn -0.0434 -0.9980 -0.0450
vn -0.0276 -0.9981 -0.0548
vn -0.0291 -0.9981 -0.0536
vn 0.2105 -0.9776 0.0081
vn 0.2396 -0.9708 -0.0090
vn 0.0338 -0.9994 -0.0077
vn 0.0289 -0.9996 -0.0047
vn 0.0281 -0.9996 -0.0044
vn 0.0327 -0.9994 -0.0068
vn 0.0165 -0.9991 -0.0383
vn 0.0075 -0.9994 -0.0329
vn 0.0229 -0.9988 -0.0423
vn 0.0319 -0.9983 -0.0484
vn 0.2389 -0.9707 -0.0277
vn 0.2292 -0.9731 -0.0215
vn 0.2301 -0.9729 -0.0229
vn 0.2409 -0.9701 -0.0288
vn 0.1491 -0.7825 0.6045
vn 0.1200 -0.7632 0.6349
vn -0.0425 -0.8232 0.5661
vn -0.0319 -0.8272 0.5610
vn -0.0343 -0.8264 0.5621
vn -0.0444 -0.8202 0.5704
vn 0.0287 -0.9842 0.1747
vn -0.0304 -0.9789 0.2019
vn 0.2028 -0.9689 0.1419
vn 0.1169 -0.9737 0.1954
vn 0.0892 0.4642 0.8812
vn 0.1119 0.4594 0.8811
vn 0.2125 0.4378 0.8736
vn 0.1032 0.4533 0.8854
vn 0.0248 0.5526 0.8331
vn 0.2451 0.4298 0.8690
vn 0.0404 0.0223 0.9989
vn 0.1702 -0.1878 0.9674
vn 0.1704 -0.1882 0.9672
vn 0.1391 0.0055 0.9903
vn 0.1385 0.0050 0.9904
vn 0.1343 0.0112 0.9909
vn 0.1337 0.0107 0.9910
vn 0.2783 -0.7318 0.6222
vn 0.3368 -0.6486 0.6826
vn 0.3478 -0.9209 0.1759
vn 0.2714 -0.9617 0.0375
vn 0.5603 -0.6549 0.5071
vn 0.5347 -0.8127 0.2313
vn 0.4431 0.3943 0.8051
vn 0.4428 0.3942 0.8053
vn 0.4082 0.4285 0.8061
vn 0.1953 0.4430 0.8750
vn 0.2251 0.4136 0.8822
vn 0.3041 -0.0370 0.9519
vn 0.2736 0.0048 0.9618
vn 0.6308 -0.2212 0.7438
vn 0.5203 -0.0158 0.8538
vn 0.1033 0.8579 0.5033
vn 0.1074 0.8563 0.5052
vn 0.0902 0.8630 0.4970
vn 0.0850 0.8652 0.4941
vn 0.0037 0.8589 0.5121
vn -0.0000 0.8580 0.5136
vn -0.0091 0.8612 0.5082
vn -0.0070 0.8614 0.5078
vn 0.0225 0.7347 0.6781
vn 0.0443 0.7333 0.6785
vn 0.0656 0.7319 0.6783
vn 0.0004 0.7427 0.6697
vn 0.0796 0.7330 0.6756
vn 0.0853 0.7301 0.6780
vn 0.5783 -0.8097 0.0995
vn 0.5070 -0.8531 0.1229
vn 0.3693 -0.9292 0.0145
vn 0.3828 -0.9238 0.0024
vn 0.3805 -0.9248 -0.0032
vn 0.3820 -0.9242 0.0053
vn 0.3780 -0.9258 -0.0050
vn 0.3722 -0.9281 0.0075
vn 0.5139 -0.8566 0.0455
vn 0.5129 -0.8576 0.0386
vn 0.5113 -0.8574 0.0588
vn 0.5243 -0.8500 0.0521
vn 0.4303 0.7713 0.4690
vn 0.4372 0.7634 0.4754
vn 0.4198 0.7819 0.4608
vn 0.4106 0.7917 0.4524
vn 0.2464 0.8373 0.4881
vn 0.2528 0.8330 0.4922
vn 0.2336 0.8457 0.4798
vn 0.2265 0.8511 0.4736
vn 0.2006 0.7214 0.6628
vn 0.1914 0.7294 0.6568
vn 0.2076 0.7162 0.6663
vn 0.2156 0.7099 0.6705
vn 0.3821 0.6688 0.6377
vn 0.3814 0.6694 0.6375
vn 0.3822 0.6685 0.6379
vn 0.3870 0.6625 0.6413
vn 0.6968 0.5631 0.4443
vn 0.6822 0.5721 0.4553
vn 0.6864 0.5698 0.4518
vn 0.7004 0.5614 0.4407
vn 0.5858 0.4900 0.6456
vn 0.5859 0.4898 0.6456
vn 0.6358 0.4616 0.6186
vn 0.8397 -0.2067 0.5021
vn 0.8262 -0.1608 0.5399
vn 0.9287 -0.1443 0.3416
vn 0.9278 -0.1382 0.3465
vn 0.9278 -0.1378 0.3466
vn 0.9288 -0.1444 0.3413
vn 0.1583 0.9084 0.3869
vn 0.1600 0.9077 0.3880
vn 0.1410 0.9078 0.3949
vn 0.1307 0.9110 0.3912
vn 0.0230 0.9165 0.3995
vn 0.0310 0.9149 0.4026
vn 0.0063 0.9154 0.4025
vn -0.0043 0.9123 0.4096
vn 0.0043 0.9072 0.4207
vn -0.0006 0.9082 0.4184
vn 0.1255 0.9055 0.4053
vn 0.1086 0.9117 0.3963
vn 0.5171 -0.8554 0.0309
vn 0.5092 -0.8599 0.0357
vn 0.3724 -0.9281 0.0014
vn 0.3713 -0.9285 0.0025
vn 0.3888 -0.9213 0.0097
vn 0.3892 -0.9211 -0.0050
vn 0.3801 -0.9249 0.0074
vn 0.3695 -0.9291 0.0171
vn 0.5349 -0.8449 0.0029
vn 0.5450 -0.8384 -0.0048
vn 0.5234 -0.8520 0.0093
vn 0.5124 -0.8585 0.0188
vn 0.4939 0.7947 0.3528
vn 0.4788 0.8100 0.3386
vn 0.3036 0.8776 0.3709
vn 0.2917 0.8855 0.3616
vn 0.2724 0.8857 0.3759
vn 0.2584 0.8941 0.3659
vn 0.2783 0.8821 0.3801
vn 0.2904 0.8739 0.3897
vn 0.4585 0.8188 0.3454
vn 0.4475 0.8292 0.3349
vn 0.4678 0.8104 0.3527
vn 0.4774 0.8008 0.3616
vn 0.7357 0.5963 0.3212
vn 0.7339 0.6010 0.3165
vn 0.7364 0.5969 0.3186
vn 0.7639 0.5763 0.2904
vn 0.7149 0.6154 0.3321
vn 0.7220 0.6107 0.3253
vn 0.9661 -0.0990 0.2385
vn 0.9662 -0.0996 0.2379
vn 0.9658 -0.0964 0.2406
vn 0.9657 -0.0955 0.2415
vn 0.9788 -0.0972 0.1804
vn 0.9780 -0.0964 0.1852
vn 0.9792 -0.0951 0.1794
vn 0.9777 -0.0828 0.1928
vn 0.0746 0.9317 0.3554
vn 0.1147 0.9163 0.3838
vn 0.1179 0.9158 0.3840
vn 0.1183 0.9170 0.3810
vn -0.0018 0.9379 0.3468
vn 0.0141 0.9380 0.3465
vn 0.0183 0.9377 0.3470
vn 0.0039 0.9315 0.3638
vn 0.0042 0.9323 0.3617
vn 0.0055 0.9369 0.3497
vn 0.0314 0.9223 0.3852
vn 0.0467 0.9218 0.3848
vn 0.0026 0.9267 0.3758
vn 0.1595 0.8998 0.4061
vn 0.1918 0.8937 0.4056
vn 0.2317 0.8850 0.4039
vn 0.5469 -0.8371 -0.0164
vn 0.6201 -0.7814 -0.0699
vn 0.3888 -0.9213 0.0026
vn 0.4382 -0.8979 -0.0408
vn 0.5159 -0.8565 -0.0182
vn 0.4265 -0.9025 0.0602
vn 0.6817 -0.7298 -0.0513
vn 0.6092 -0.7930 0.0048
vn 0.4659 0.7850 0.4083
vn 0.4630 0.7882 0.4055
vn 0.4682 0.7829 0.4097
vn 0.4679 0.7764 0.4222
vn 0.2264 0.8959 0.3823
vn 0.2577 0.8753 0.4092
vn 0.2574 0.8755 0.4089
vn 0.2991 0.8495 0.4346
vn 0.2581 0.8782 0.4027
vn 0.4840 0.7568 0.4393
vn 0.4678 0.7752 0.4245
vn 0.7825 0.5022 0.3680
vn 0.7832 0.5037 0.3645
vn 0.7838 0.5059 0.3602
vn 0.8063 0.4853 0.3381
vn 0.7493 0.5303 0.3966
vn 0.7846 0.5083 0.3549
vn 0.9799 -0.1175 0.1610
vn 0.9778 -0.1224 0.1699
vn 0.9798 -0.1180 0.1613
vn 0.9781 -0.0977 0.1837
vn 0.9788 -0.1348 0.1542
vn 0.9778 -0.1216 0.1705
vn 0.1066 0.9794 0.1715
vn 0.0664 0.9880 0.1395
vn 0.0157 0.9847 0.1734
vn -0.0055 0.9866 0.1632
vn -0.0026 0.9491 0.3150
vn -0.0022 0.9489 0.3155
vn 0.0136 0.9466 0.3221
vn 0.0131 0.9468 0.3216
vn 0.0727 0.9445 0.3204
vn 0.0766 0.9434 0.3227
vn 0.0662 0.9464 0.3162
vn 0.0631 0.9471 0.3146
vn 0.6593 -0.7477 0.0795
vn 0.7073 -0.7059 0.0388
vn 0.4929 -0.8582 0.1432
vn 0.5787 -0.8130 0.0641
vn 0.5641 -0.8180 0.1124
vn 0.5642 -0.8179 0.1130
vn 0.5728 -0.8131 0.1040
vn 0.5733 -0.8127 0.1043
vn 0.6807 -0.7187 0.1416
vn 0.6756 -0.7226 0.1461
vn 0.6806 -0.7188 0.1417
vn 0.6858 -0.7148 0.1371
vn 0.5578 0.8114 0.1745
vn 0.5167 0.8464 0.1291
vn 0.3309 0.9266 0.1789
vn 0.2789 0.9520 0.1264
vn 0.2352 0.9235 0.3030
vn 0.2701 0.9026 0.3351
vn 0.4769 0.8330 0.2807
vn 0.5121 0.7989 0.3156
vn 0.8285 0.5291 0.1834
vn 0.8259 0.5320 0.1864
vn 0.8282 0.5295 0.1838
vn 0.8308 0.5263 0.1812
vn 0.8133 0.5145 0.2719
vn 0.8235 0.5047 0.2592
vn 0.9755 -0.1376 0.1716
vn 0.9755 -0.1404 0.1694
vn 0.9755 -0.1433 0.1669
vn 0.9755 -0.1407 0.1691
vn 0.9659 -0.1490 0.2116
vn 0.9659 -0.1532 0.2090
vn 0.9658 -0.1588 0.2050
vn 0.9659 -0.1546 0.2078
vn 0.0467 0.9982 -0.0372
vn 0.0904 0.9934 -0.0704
vn 0.0038 0.9996 0.0285
vn 0.0531 0.9986 0.0015
vn 0.1845 0.9819 -0.0421
vn 0.1837 0.9817 -0.0494
vn 0.1837 0.9817 -0.0506
vn 0.1024 0.9947 0.0069
vn 0.2658 0.9566 -0.1194
vn 0.1830 0.9814 -0.0576
vn 0.6840 -0.7071 0.1790
vn 0.7359 -0.6034 0.3071
vn 0.7057 -0.6369 0.3103
vn 0.7258 -0.5992 0.3379
vn 0.6549 -0.7232 0.2194
vn 0.6651 -0.7041 0.2487
vn 0.5088 -0.8496 0.1388
vn 0.5441 -0.8093 0.2211
vn 0.4452 -0.8729 0.1995
vn 0.4792 -0.8311 0.2820
vn 0.8291 0.5505 0.0977
vn 0.8295 0.5498 0.0986
vn 0.8280 0.5525 0.0958
vn 0.8274 0.5535 0.0950
vn 0.9555 -0.1751 0.2374
vn 0.9606 -0.1590 0.2280
vn 0.9664 -0.1891 0.1741
vn 0.9604 -0.1882 0.2054
vn 0.9876 -0.1260 0.0934
vn 0.9924 -0.0979 0.0746
vn 0.8558 0.5152 0.0470
vn 0.8227 0.5684 0.0038
vn 0.4028 0.9120 -0.0776
vn 0.4638 0.8782 -0.1169
vn 0.3238 0.9461 -0.0087
vn 0.4045 0.9127 -0.0583
vn 0.5849 0.8105 -0.0307
vn 0.5465 0.8374 -0.0076
vn 0.5553 0.8300 -0.0522
vn 0.5814 0.8109 -0.0663
vn 0.3102 0.8076 -0.5015
vn 0.1703 0.8494 -0.4995
vn 0.2077 0.8439 -0.4946
vn 0.2911 0.8268 -0.4813
vn 0.3200 0.6754 -0.6644
vn 0.2714 0.7282 -0.6293
vn 0.0711 0.7553 -0.6515
vn 0.0521 0.7655 -0.6413
vn 0.0685 0.7565 -0.6504
vn 0.0881 0.7458 -0.6603
vn 0.0878 0.8541 -0.5126
vn 0.0808 0.8579 -0.5074
vn 0.0728 0.9349 -0.3474
vn 0.2176 0.8975 -0.3837
vn 0.1949 0.9015 -0.3865
vn 0.1228 0.9084 -0.3996
vn 0.0663 0.9849 -0.1598
vn 0.1172 0.9695 -0.2151
vn 0.3181 0.9129 -0.2559
vn 0.2539 0.9487 -0.1884
vn 0.3173 0.8556 -0.4089
vn 0.2856 0.8847 -0.3684
vn 0.6244 -0.7730 0.1123
vn 0.5740 -0.8155 0.0741
vn 0.6675 -0.6851 0.2919
vn 0.6106 -0.7600 0.2227
vn 0.4183 -0.8867 0.1970
vn 0.4025 -0.9036 0.1470
vn 0.4157 -0.8941 0.1668
vn 0.4395 -0.8675 0.2329
vn 0.3680 -0.9269 0.0734
vn 0.4052 -0.9071 0.1139
vn 0.4710 -0.0551 -0.8804
vn 0.4651 -0.1158 -0.8777
vn 0.2834 -0.2690 -0.9205
vn 0.2628 -0.3406 -0.9027
vn 0.1653 0.2992 -0.9397
vn 0.1380 0.2547 -0.9571
vn 0.3608 0.4115 -0.8370
vn 0.3182 0.3275 -0.8897
vn 0.4794 0.8035 -0.3531
vn 0.5162 0.7682 -0.3787
vn 0.4527 0.8683 -0.2029
vn 0.5039 0.8302 -0.2385
vn 0.6780 0.6839 -0.2696
vn 0.5370 0.8132 -0.2246
vn 0.7033 0.6291 -0.3312
vn 0.6681 0.6721 -0.3192
vn 0.7552 0.4304 -0.4943
vn 0.7048 0.4681 -0.5330
vn 0.9039 -0.2474 -0.3490
vn 0.8367 -0.5371 -0.1068
vn 0.6953 0.2001 -0.6904
vn 0.7738 -0.1436 -0.6170
vn 0.5237 -0.7404 -0.4214
vn 0.5802 -0.7127 -0.3942
vn 0.5774 -0.8157 -0.0365
vn 0.5070 -0.8598 -0.0608
vn 0.3274 -0.9445 -0.0272
vn 0.3715 -0.9284 -0.0008
vn 0.3481 -0.9122 -0.2163
vn 0.3492 -0.9118 -0.2158
vn 0.3400 -0.9145 -0.2192
vn 0.3392 -0.9148 -0.2194
vn 0.6895 0.2582 -0.6767
vn 0.6316 0.2913 -0.7185
vn 0.5668 0.4969 -0.6571
vn 0.4740 0.5270 -0.7053
vn 0.4633 0.7038 -0.5385
vn 0.5878 0.6767 -0.4434
vn 0.6399 0.5364 -0.5502
vn 0.7452 0.4745 -0.4687
vn 0.8316 0.5176 -0.2013
vn 0.8662 0.4773 -0.1480
vn 0.9792 -0.1107 0.1703
vn 0.9810 -0.1040 0.1636
vn 0.9808 -0.1054 0.1643
vn 0.9788 -0.1116 0.1716
vn 0.9467 -0.3151 0.0673
vn 0.9886 -0.1096 -0.1034
vn 0.8121 0.5137 -0.2768
vn 0.8540 0.4697 -0.2235
vn -0.1873 0.1371 0.9727
vn -0.0112 0.1183 0.9929
vn 0.0488 0.5524 0.8321
vn -0.0078 0.5289 0.8486
vn -0.1800 0.4513 0.8740
vn -0.0805 0.5292 0.8446
vn -0.3779 -0.8562 0.3524
vn -0.3775 -0.8579 0.3485
vn -0.3773 -0.8560 0.3534
vn -0.3771 -0.8558 0.3541
vn -0.2838 -0.9564 0.0691
vn -0.2712 -0.9542 0.1261
vn -0.1223 -0.9788 0.1643
vn -0.0401 -0.9552 0.2933
vn -0.2113 -0.8537 0.4759
vn -0.1777 -0.8050 0.5660
vn -0.5154 -0.2327 0.8247
vn -0.4726 -0.3261 0.8187
vn -0.3170 -0.0427 0.9475
vn -0.1755 -0.2010 0.9637
vn -0.1575 0.3982 0.9037
vn -0.2263 0.4432 0.8674
vn -0.4114 0.4073 0.8154
vn -0.3910 0.3677 0.8438
vn -0.4938 -0.8693 0.0220
vn -0.4918 -0.8705 0.0185
vn -0.4931 -0.8698 0.0184
vn -0.4936 -0.8694 0.0225
vn -0.3826 -0.9238 -0.0146
vn -0.3711 -0.9279 -0.0365
vn -0.3432 -0.9392 0.0126
vn -0.3372 -0.9413 -0.0138
vn -0.3454 -0.9383 0.0171
vn -0.3548 -0.9341 0.0406
vn -0.4823 -0.8663 0.1299
vn -0.4718 -0.8769 0.0920
vn -0.1311 0.7440 0.6552
vn -0.0761 0.7344 0.6745
vn 0.0594 0.7414 0.6685
vn 0.0013 0.7594 0.6506
vn -0.0116 0.8600 0.5102
vn -0.0162 0.8607 0.5088
vn -0.1003 0.8506 0.5161
vn -0.1024 0.8509 0.5153
vn -0.0996 0.8506 0.5162
vn -0.0975 0.8505 0.5169
vn -0.6561 0.5299 0.5373
vn -0.6567 0.5301 0.5364
vn -0.6441 0.5373 0.5444
vn -0.6428 0.5376 0.5458
vn -0.8982 -0.1320 0.4193
vn -0.8973 -0.1280 0.4225
vn -0.8977 -0.1301 0.4209
vn -0.8988 -0.1338 0.4174
vn -0.7793 -0.2285 0.5835
vn -0.7815 -0.2335 0.5786
vn -0.7792 -0.2281 0.5837
vn -0.7776 -0.2227 0.5880
vn -0.5588 0.4451 0.6998
vn -0.5855 0.4298 0.6874
vn -0.4169 0.7307 0.5405
vn -0.4167 0.7311 0.5403
vn -0.4181 0.7291 0.5418
vn -0.4186 0.7288 0.5419
vn -0.3833 0.6115 0.6922
vn -0.3733 0.6255 0.6851
vn -0.2050 0.7038 0.6802
vn -0.2175 0.6924 0.6879
vn -0.2349 0.8177 0.5256
vn -0.2340 0.8178 0.5257
vn -0.2390 0.8143 0.5290
vn -0.2392 0.8138 0.5296
vn -0.5298 -0.8465 -0.0524
vn -0.5387 -0.8417 -0.0371
vn -0.5276 -0.8477 -0.0560
vn -0.5185 -0.8519 -0.0730
vn -0.4364 -0.8992 -0.0331
vn -0.4520 -0.8920 -0.0042
vn -0.4358 -0.8995 -0.0329
vn -0.4155 -0.9071 -0.0677
vn -0.3894 -0.9196 -0.0513
vn -0.4075 -0.9130 -0.0193
vn -0.5057 -0.8625 -0.0188
vn -0.5026 -0.8643 -0.0209
vn -0.5036 -0.8637 -0.0208
vn -0.5049 -0.8630 -0.0166
vn -0.1208 0.8968 0.4256
vn -0.1124 0.8962 0.4291
vn -0.1216 0.9011 0.4162
vn -0.1277 0.9029 0.4105
vn -0.0186 0.9082 0.4182
vn -0.0162 0.9079 0.4189
vn -0.0048 0.9095 0.4156
vn -0.0035 0.9107 0.4130
vn -0.0143 0.9158 0.4014
vn -0.0094 0.9151 0.4031
vn -0.1277 0.9042 0.4075
vn -0.1263 0.9056 0.4048
vn -0.7393 0.5684 0.3610
vn -0.7086 0.5823 0.3986
vn -0.7028 0.5902 0.3971
vn -0.7083 0.5869 0.3923
vn -0.9747 -0.0540 0.2167
vn -0.9724 -0.0581 0.2261
vn -0.9750 -0.0527 0.2161
vn -0.9719 -0.0364 0.2327
vn -0.9547 -0.0649 0.2904
vn -0.9542 -0.0623 0.2925
vn -0.9543 -0.0625 0.2922
vn -0.9548 -0.0649 0.2901
vn -0.6951 0.5905 0.4100
vn -0.6852 0.5964 0.4181
vn -0.4579 0.7865 0.4144
vn -0.4576 0.7869 0.4140
vn -0.4602 0.7840 0.4166
vn -0.4606 0.7837 0.4166
vn -0.4445 0.7888 0.4245
vn -0.4539 0.7790 0.4326
vn -0.2543 0.8668 0.4289
vn -0.2570 0.8705 0.4197
vn -0.2533 0.8674 0.4283
vn -0.2525 0.8681 0.4274
vn -0.2459 0.8779 0.4109
vn -0.2564 0.8712 0.4187
vn -0.6221 -0.7825 -0.0255
vn -0.5907 -0.8042 -0.0663
vn -0.5928 -0.8015 -0.0785
vn -0.5940 -0.8002 -0.0832
vn -0.5648 -0.8243 0.0392
vn -0.5645 -0.8245 0.0407
vn -0.5656 -0.8240 0.0337
vn -0.5217 -0.8514 -0.0548
vn -0.4657 -0.8796 -0.0972
vn -0.5147 -0.8574 -0.0075
vn -0.5569 -0.8216 -0.1223
vn -0.5893 -0.8056 -0.0615
vn -0.1258 0.9059 0.4043
vn -0.0524 0.8983 0.4362
vn -0.0116 0.9266 0.3759
vn 0.0389 0.9152 0.4012
vn 0.0455 0.9344 0.3534
vn 0.0323 0.9375 0.3464
vn 0.0031 0.9221 0.3869
vn -0.0640 0.9311 0.3592
vn -0.7967 0.4803 0.3669
vn -0.7618 0.5034 0.4077
vn -0.7635 0.5078 0.3991
vn -0.7620 0.5030 0.4079
vn -0.9761 -0.1271 0.1762
vn -0.9720 -0.0987 0.2133
vn -0.9722 -0.0582 0.2270
vn -0.9777 -0.0868 0.1912
vn -0.7246 0.5293 0.4413
vn -0.7638 0.5076 0.3987
vn -0.4386 0.7845 0.4384
vn -0.4363 0.7808 0.4472
vn -0.4331 0.7751 0.4601
vn -0.4350 0.7885 0.4348
vn -0.4449 0.7551 0.4815
vn -0.4302 0.7713 0.4690
vn -0.1864 0.8786 0.4397
vn -0.1901 0.8824 0.4303
vn -0.1884 0.8802 0.4357
vn -0.2313 0.8500 0.4732
vn -0.1612 0.9023 0.3999
vn -0.1902 0.8846 0.4259
vn -0.6152 -0.7722 0.1591
vn -0.6041 -0.7861 0.1309
vn -0.5801 -0.7983 0.1618
vn -0.5805 -0.7980 0.1621
vn -0.5764 -0.8029 0.1518
vn -0.5764 -0.8030 0.1514
vn -0.5634 -0.8249 0.0460
vn -0.5884 -0.8022 0.1017
vn -0.6099 -0.7922 0.0198
vn -0.6286 -0.7753 0.0614
vn -0.0103 0.9522 0.3052
vn -0.0279 0.9541 0.2982
vn 0.0367 0.9481 0.3158
vn 0.0438 0.9461 0.3210
vn 0.0177 0.9517 0.3065
vn 0.0124 0.9530 0.3026
vn -0.0023 0.9865 0.1639
vn -0.0123 0.9875 0.1571
vn 0.0006 0.9861 0.1660
vn 0.0113 0.9848 0.1734
vn -0.1136 0.9839 0.1382
vn -0.0512 0.9852 0.1639
vn -0.8200 0.5354 0.2024
vn -0.8026 0.5558 0.2165
vn -0.9542 -0.2152 0.2079
vn -0.9543 -0.1969 0.2249
vn -0.9671 -0.1459 0.2086
vn -0.9687 -0.1697 0.1811
vn -0.8061 0.5211 0.2803
vn -0.7937 0.5325 0.2940
vn -0.7938 0.5326 0.2937
vn -0.5533 0.8180 0.1573
vn -0.5644 0.8081 0.1689
vn -0.4727 0.8376 0.2738
vn -0.5299 0.7807 0.3312
vn -0.2095 0.9299 0.3023
vn -0.2357 0.9143 0.3293
vn -0.2198 0.9241 0.3127
vn -0.1934 0.9386 0.2856
vn -0.3542 0.9140 0.1979
vn -0.2705 0.9565 0.1096
vn -0.4546 -0.8641 0.2160
vn -0.3533 -0.8854 0.3020
vn -0.3585 -0.8898 0.2823
vn -0.3771 -0.9003 0.2174
vn -0.5877 -0.7979 0.1343
vn -0.4428 -0.8601 0.2535
vn -0.5557 -0.7835 0.2780
vn -0.5553 -0.7823 0.2822
vn -0.5597 -0.7815 0.2759
vn -0.5619 -0.7792 0.2778
vn -0.5144 -0.7909 0.3315
vn -0.5230 -0.7926 0.3134
vn -0.5455 -0.7955 0.2640
vn -0.5389 -0.7810 0.3155
vn -0.2144 0.9671 -0.1366
vn -0.2865 0.9569 -0.0485
vn -0.1781 0.9839 -0.0119
vn -0.1382 0.9888 -0.0559
vn -0.1732 0.9847 -0.0173
vn -0.2094 0.9776 0.0226
vn -0.0348 0.9994 0.0066
vn -0.0569 0.9979 0.0294
vn -0.0422 0.9990 0.0135
vn -0.0184 0.9998 -0.0112
vn -0.0834 0.9948 -0.0585
vn -0.1041 0.9940 -0.0348
vn -0.0781 0.9948 -0.0652
vn -0.0570 0.9941 -0.0927
vn -0.9111 0.4102 0.0401
vn -0.8756 0.4800 0.0541
vn -0.9351 -0.2596 0.2413
vn -0.9349 -0.2441 0.2575
vn -0.9334 -0.2478 0.2596
vn -0.9385 -0.2406 0.2476
vn -0.9314 -0.2476 0.2668
vn -0.9313 -0.2490 0.2661
vn -0.8280 0.5409 0.1478
vn -0.8775 0.4649 0.1180
vn -0.6914 0.7201 -0.0586
vn -0.7246 0.6890 -0.0132
vn -0.5530 0.8331 -0.0133
vn -0.6626 0.7347 0.1454
vn -0.6626 0.7348 0.1455
vn -0.4147 0.9087 0.0468
vn -0.3661 0.9305 -0.0108
vn -0.5258 0.8505 -0.0136
vn -0.4020 0.9017 -0.1590
vn -0.1578 0.8455 -0.5101
vn -0.0822 0.8188 -0.5682
vn -0.1093 0.7595 -0.6412
vn -0.1486 0.7773 -0.6113
vn -0.3295 0.6921 -0.6422
vn -0.3974 0.7113 -0.5798
vn -0.3997 0.7690 -0.4988
vn -0.3550 0.7634 -0.5396
vn -0.3194 -0.9358 0.1495
vn -0.2504 -0.9410 0.2276
vn -0.3818 -0.9032 0.1963
vn -0.2922 -0.9131 0.2843
vn -0.4415 -0.8351 0.3281
vn -0.5536 -0.7961 0.2445
vn -0.3584 -0.8884 0.2869
vn -0.5224 -0.8396 0.1491
vn -0.2980 0.8531 -0.4282
vn -0.4141 0.8555 -0.3110
vn -0.2579 0.9142 -0.3125
vn -0.3427 0.9146 -0.2148
vn -0.1695 0.9723 -0.1606
vn -0.0976 0.9617 -0.2560
vn -0.1425 0.9273 -0.3462
vn -0.1576 0.9300 -0.3322
vn -0.4814 0.3888 -0.7855
vn -0.3215 0.5009 -0.8036
vn -0.1856 0.2648 -0.9463
vn -0.1744 0.2707 -0.9467
vn -0.1845 0.2654 -0.9463
vn -0.1979 0.2583 -0.9456
vn -0.4173 -0.3252 -0.8486
vn -0.2863 -0.2600 -0.9222
vn -0.6241 -0.3244 -0.7108
vn -0.4917 -0.2419 -0.8365
vn -0.7143 0.6824 -0.1550
vn -0.7542 0.6345 -0.1690
vn -0.5102 0.8243 -0.2455
vn -0.5075 0.8264 -0.2439
vn -0.5078 0.8262 -0.2440
vn -0.5104 0.8241 -0.2457
vn -0.5161 0.7476 -0.4181
vn -0.4745 0.7895 -0.3893
vn -0.7476 0.5626 -0.3529
vn -0.7202 0.6029 -0.3431
vn -0.3230 -0.9036 -0.2812
vn -0.3506 -0.8808 -0.3182
vn -0.2741 -0.9602 0.0536
vn -0.2348 -0.9673 0.0965
vn -0.3144 -0.9343 0.1679
vn -0.4962 -0.8681 -0.0089
vn -0.5756 -0.6973 -0.4272
vn -0.5740 -0.6973 -0.4292
vn -0.5737 -0.6981 -0.4284
vn -0.5681 -0.7069 -0.4214
vn -0.7351 -0.4553 -0.5022
vn -0.7566 -0.1432 -0.6380
vn -0.7567 -0.1431 -0.6379
vn -0.8850 -0.4227 -0.1949
vn -0.6240 -0.7566 0.1953
vn -0.8444 0.3736 -0.3839
vn -0.8733 0.3428 -0.3461
vn -0.7365 0.5452 -0.4004
vn -0.7998 0.4367 -0.4119
vn -0.4951 0.7214 -0.4842
vn -0.4643 0.7536 -0.4653
vn -0.4082 0.5515 -0.7275
vn -0.3688 0.6694 -0.6449
vn -0.7506 -0.1256 -0.6487
vn -0.7336 0.1349 -0.6661
vn -0.9514 -0.3072 -0.0204
vn -0.8339 -0.5162 0.1953
vn -0.9637 -0.2408 0.1158
vn -0.9240 -0.3296 0.1941
vn -0.9364 0.3494 -0.0345
vn -0.9044 0.4139 -0.1037
vn -0.9079 0.3495 -0.2315
vn -0.8915 0.3715 -0.2591
vn -0.9029 0.3565 -0.2403
vn -0.9188 0.3333 -0.2114
vt 0.232134 0.985008
vt 0.231140 0.981673
vt 0.238848 0.979814
vt 0.240031 0.982892
vt 0.229793 0.977156
vt 0.237228 0.975707
vt 0.243790 0.973734
vt 0.245762 0.977270
vt 0.247277 0.980010
vt 0.769267 0.978645
vt 0.768555 0.983281
vt 0.760854 0.982037
vt 0.761845 0.977784
vt 0.768002 0.986780
vt 0.760089 0.985284
vt 0.752829 0.983276
vt 0.753903 0.980308
vt 0.755206 0.976518
vt 0.214742 0.988473
vt 0.213622 0.984262
vt 0.222651 0.982954
vt 0.223642 0.986679
vt 0.212505 0.978843
vt 0.221452 0.978014
vt 0.786275 0.979499
vt 0.785902 0.985146
vt 0.776945 0.984233
vt 0.777460 0.979118
vt 0.785325 0.989631
vt 0.776451 0.988164
vt 0.196001 0.993546
vt 0.194697 0.987907
vt 0.204098 0.986112
vt 0.205392 0.990865
vt 0.194005 0.981163
vt 0.203091 0.980124
vt 0.804968 0.979965
vt 0.805027 0.986759
vt 0.795477 0.986103
vt 0.795689 0.979940
vt 0.804247 0.992712
vt 0.794767 0.991194
vt 0.178328 0.980873
vt 0.185986 0.981155
vt 0.186047 0.988688
vt 0.177401 0.988862
vt 0.186901 0.995674
vt 0.177126 0.996938
vt 0.822921 0.994891
vt 0.813305 0.994058
vt 0.813837 0.986744
vt 0.822794 0.986495
vt 0.813258 0.979143
vt 0.821463 0.978449
vt 0.161699 0.980188
vt 0.170407 0.980727
vt 0.168184 0.988443
vt 0.158102 0.986678
vt 0.166034 0.996501
vt 0.153994 0.993394
vt 0.844816 0.992371
vt 0.833530 0.994706
vt 0.832736 0.986247
vt 0.842891 0.984607
vt 0.830571 0.978491
vt 0.839628 0.977775
vt 0.144285 0.974656
vt 0.151886 0.978104
vt 0.147361 0.982107
vt 0.139698 0.976899
vt 0.142311 0.986442
vt 0.137134 0.980691
vt 0.134454 0.961144
vt 0.139245 0.970907
vt 0.133766 0.974250
vt 0.864001 0.975931
vt 0.858353 0.970829
vt 0.863967 0.962700
vt 0.860787 0.982090
vt 0.858506 0.977430
vt 0.853103 0.973780
vt 0.855765 0.986868
vt 0.852059 0.980801
vt 0.847375 0.975697
vt 0.741837 0.976659
vt 0.743819 0.974654
vt 0.747817 0.978030
vt 0.746484 0.980522
vt 0.746325 0.973206
vt 0.749356 0.974897
vt 0.253732 0.968288
vt 0.256265 0.969993
vt 0.251758 0.973938
vt 0.249484 0.971272
vt 0.258707 0.971234
vt 0.253658 0.976017
vt 0.256764 0.962961
vt 0.260071 0.962907
vt 0.259062 0.966060
vt 0.256226 0.965491
vt 0.263978 0.962447
vt 0.262264 0.966483
vt 0.254208 0.956859
vt 0.256616 0.955620
vt 0.259237 0.959710
vt 0.256191 0.960262
vt 0.258689 0.954535
vt 0.261620 0.959115
vt 0.253566 0.964454
vt 0.253073 0.962831
vt 0.250892 0.965741
vt 0.249280 0.963215
vt 0.248932 0.959697
vt 0.251444 0.958523
vt 0.252719 0.960921
vt 0.249053 0.961436
vt 0.244911 0.950728
vt 0.246807 0.947912
vt 0.252421 0.951476
vt 0.250336 0.953513
vt 0.248412 0.945407
vt 0.254257 0.949646
vt 0.246619 0.967139
vt 0.244810 0.963307
vt 0.241135 0.968271
vt 0.239529 0.963352
vt 0.240768 0.957864
vt 0.242665 0.954286
vt 0.247924 0.956146
vt 0.245958 0.958894
vt 0.244790 0.961230
vt 0.239613 0.960868
vt 0.231545 0.946324
vt 0.233087 0.942532
vt 0.240301 0.945037
vt 0.238601 0.948408
vt 0.234399 0.939313
vt 0.241713 0.942103
vt 0.234940 0.969212
vt 0.233568 0.963413
vt 0.227903 0.969903
vt 0.226787 0.963408
vt 0.227933 0.956202
vt 0.229644 0.951279
vt 0.236524 0.952715
vt 0.234726 0.957021
vt 0.233660 0.960591
vt 0.226897 0.960205
vt 0.215417 0.942462
vt 0.216603 0.937854
vt 0.225153 0.940119
vt 0.223774 0.944273
vt 0.217806 0.933995
vt 0.226420 0.936666
vt 0.219943 0.970194
vt 0.219122 0.963148
vt 0.211375 0.970468
vt 0.210873 0.962868
vt 0.212798 0.954257
vt 0.214128 0.948540
vt 0.222147 0.949830
vt 0.220597 0.955208
vt 0.219450 0.959424
vt 0.211521 0.958642
vt 0.197654 0.941180
vt 0.198181 0.935246
vt 0.207543 0.936088
vt 0.206638 0.941308
vt 0.198812 0.929583
vt 0.208547 0.931454
vt 0.202462 0.971034
vt 0.202303 0.962789
vt 0.193998 0.971492
vt 0.194062 0.962867
vt 0.196138 0.953754
vt 0.197006 0.947773
vt 0.205641 0.947691
vt 0.204481 0.953614
vt 0.203158 0.958225
vt 0.194962 0.958345
vt 0.177450 0.928814
vt 0.188337 0.928426
vt 0.188147 0.935558
vt 0.178017 0.937476
vt 0.188134 0.942490
vt 0.178706 0.945357
vt 0.179906 0.964735
vt 0.186768 0.963589
vt 0.186549 0.971681
vt 0.179459 0.971980
vt 0.187381 0.959469
vt 0.188053 0.955277
vt 0.180284 0.961148
vt 0.180371 0.957493
vt 0.188246 0.949418
vt 0.179735 0.952180
vt 0.162533 0.954719
vt 0.154977 0.960477
vt 0.149888 0.954016
vt 0.159564 0.946125
vt 0.150044 0.964474
vt 0.144575 0.963339
vt 0.143220 0.946262
vt 0.155873 0.935854
vt 0.167163 0.930941
vt 0.168818 0.940966
vt 0.170324 0.949652
vt 0.166132 0.967922
vt 0.173058 0.966214
vt 0.172216 0.972634
vt 0.164456 0.973391
vt 0.153525 0.970339
vt 0.148822 0.972682
vt 0.145055 0.969738
vt 0.150886 0.968340
vt 0.172058 0.955750
vt 0.164836 0.959753
vt 0.173242 0.959980
vt 0.166285 0.962777
vt 0.167165 0.965139
vt 0.161510 0.967179
vt 0.159049 0.966439
vt 0.158865 0.969765
vt 0.155729 0.973634
vt 0.157376 0.964269
vt 0.173478 0.963100
vt 0.739435 0.967095
vt 0.738243 0.962212
vt 0.739848 0.962125
vt 0.741280 0.963887
vt 0.739745 0.957657
vt 0.741422 0.958858
vt 0.743042 0.960470
vt 0.747739 0.966741
vt 0.746587 0.969924
vt 0.742988 0.970439
vt 0.743672 0.967060
vt 0.739840 0.971864
vt 0.744119 0.964810
vt 0.747679 0.964956
vt 0.745285 0.962223
vt 0.747713 0.963217
vt 0.757702 0.966138
vt 0.756828 0.970890
vt 0.751199 0.970298
vt 0.752371 0.966442
vt 0.745105 0.955124
vt 0.746874 0.957173
vt 0.743451 0.953184
vt 0.748979 0.949161
vt 0.750519 0.951620
vt 0.752184 0.954281
vt 0.755751 0.960777
vt 0.757191 0.963773
vt 0.752004 0.964476
vt 0.750591 0.962182
vt 0.748815 0.959653
vt 0.754022 0.957506
vt 0.770269 0.965317
vt 0.770105 0.971492
vt 0.763099 0.971310
vt 0.763624 0.965793
vt 0.756838 0.948564
vt 0.758331 0.951704
vt 0.755452 0.945703
vt 0.762505 0.942472
vt 0.763806 0.945627
vt 0.765146 0.949164
vt 0.768016 0.957991
vt 0.769491 0.962116
vt 0.762989 0.963044
vt 0.761555 0.959426
vt 0.759963 0.955529
vt 0.766561 0.953542
vt 0.785561 0.963777
vt 0.786225 0.971177
vt 0.777872 0.971348
vt 0.777651 0.964542
vt 0.771363 0.942420
vt 0.772574 0.946360
vt 0.770105 0.939002
vt 0.778373 0.935474
vt 0.779574 0.939326
vt 0.780596 0.943779
vt 0.782430 0.954731
vt 0.784113 0.959416
vt 0.776613 0.960772
vt 0.775048 0.956322
vt 0.773751 0.951366
vt 0.781390 0.949386
vt 0.801854 0.963119
vt 0.803603 0.971090
vt 0.795038 0.971188
vt 0.793819 0.963283
vt 0.788487 0.937026
vt 0.789127 0.942146
vt 0.787456 0.932400
vt 0.797263 0.930084
vt 0.797839 0.935992
vt 0.797917 0.942013
vt 0.797928 0.953428
vt 0.799736 0.958148
vt 0.791850 0.958444
vt 0.789988 0.953613
vt 0.789320 0.948127
vt 0.797598 0.948067
vt 0.811285 0.970623
vt 0.818776 0.970574
vt 0.809415 0.963264
vt 0.816674 0.963989
vt 0.815989 0.946215
vt 0.807086 0.943563
vt 0.807572 0.936616
vt 0.817219 0.938523
vt 0.807873 0.929199
vt 0.818867 0.929787
vt 0.815324 0.956258
vt 0.815626 0.960040
vt 0.807843 0.958787
vt 0.806744 0.954505
vt 0.806639 0.949554
vt 0.815441 0.951900
vt 0.841463 0.936687
vt 0.855246 0.947018
vt 0.847366 0.952651
vt 0.836108 0.945251
vt 0.853369 0.962471
vt 0.847050 0.961883
vt 0.841776 0.957712
vt 0.832744 0.952502
vt 0.826774 0.971233
vt 0.834707 0.971518
vt 0.823797 0.965226
vt 0.830692 0.966302
vt 0.824268 0.949044
vt 0.826250 0.941212
vt 0.829456 0.931947
vt 0.851639 0.968173
vt 0.845179 0.965478
vt 0.847294 0.970316
vt 0.841674 0.967159
vt 0.823139 0.954416
vt 0.822695 0.958238
vt 0.830681 0.957218
vt 0.829487 0.960433
vt 0.841790 0.971064
vt 0.837016 0.967085
vt 0.833969 0.964525
vt 0.836188 0.963523
vt 0.828918 0.963149
vt 0.838501 0.961293
vt 0.822718 0.961594
s 1
usemtl Default_OBJ.003
f 1/1/1 2/2/2 3/3/3
f 3/3/3 4/4/4 1/1/1
f 2/2/5 5/5/6 6/6/7
f 6/6/7 3/3/8 2/2/5
f 7/7/9 8/8/10 3/3/11
f 3/3/11 6/6/12 7/7/9
f 8/8/13 9/9/14 4/4/4
f 4/4/4 3/3/3 8/8/13
f 10/10/15 11/11/16 12/12/17
f 12/12/18 13/13/19 10/10/20
f 11/11/21 1/14/22 4/15/23
f 4/15/24 12/12/24 11/11/24
f 9/16/25 14/17/26 12/12/27
f 12/12/27 4/15/28 9/16/25
f 14/17/29 15/18/30 13/13/31
f 13/13/19 12/12/18 14/17/32
f 16/19/33 17/20/34 18/21/35
f 18/21/35 19/22/36 16/19/33
f 17/20/37 20/23/38 21/24/39
f 21/24/39 18/21/40 17/20/37
f 5/5/6 2/2/5 18/21/41
f 18/21/41 21/24/42 5/5/6
f 2/2/2 1/1/1 19/22/43
f 19/22/43 18/21/44 2/2/2
f 22/25/45 23/26/45 24/27/45
f 24/27/46 25/28/47 22/25/48
f 23/26/49 16/29/50 19/30/51
f 19/30/43 24/27/52 23/26/53
f 1/14/22 11/11/21 24/27/54
f 24/27/52 19/30/43 1/14/1
f 11/11/16 10/10/15 25/28/55
f 25/28/47 24/27/46 11/11/56
f 26/31/57 27/32/58 28/33/59
f 28/33/59 29/34/60 26/31/57
f 27/32/61 30/35/62 31/36/63
f 31/36/63 28/33/64 27/32/61
f 20/23/65 17/20/65 28/33/65
f 28/33/66 31/36/66 20/23/66
f 17/20/67 16/19/68 29/34/69
f 29/34/69 28/33/70 17/20/67
f 32/37/71 33/38/72 34/39/73
f 34/39/73 35/40/74 32/37/71
f 33/38/75 26/41/76 29/42/77
f 29/42/77 34/39/78 33/38/75
f 16/29/50 23/26/49 34/39/79
f 34/39/79 29/42/80 16/29/50
f 23/26/81 22/25/82 35/40/83
f 35/40/83 34/39/84 23/26/81
f 36/43/85 37/44/86 38/45/87
f 38/45/87 39/46/88 36/43/85
f 37/44/89 30/35/90 27/32/91
f 27/32/91 38/45/92 37/44/89
f 26/31/93 40/47/94 38/45/95
f 38/45/95 27/32/96 26/31/93
f 40/47/97 41/48/98 39/46/99
f 39/46/99 38/45/100 40/47/97
f 41/49/101 40/50/102 42/51/103
f 42/51/103 43/52/104 41/49/101
f 40/50/105 26/41/105 33/38/105
f 33/38/106 42/51/106 40/50/106
f 32/37/107 44/53/107 42/51/107
f 42/51/108 33/38/108 32/37/108
f 44/53/109 45/54/109 43/52/109
f 43/52/110 42/51/110 44/53/110
f 46/55/111 47/56/112 48/57/113
f 48/57/114 49/58/115 46/55/116
f 47/56/117 36/43/117 39/46/117
f 39/46/118 48/57/113 47/56/112
f 41/48/119 50/59/120 48/57/121
f 48/57/121 39/46/122 41/48/119
f 50/59/123 51/60/124 49/58/125
f 49/58/125 48/57/126 50/59/123
f 51/61/124 50/62/123 52/63/127
f 52/63/127 53/64/128 51/61/124
f 50/62/120 41/49/119 43/52/129
f 43/52/129 52/63/130 50/62/120
f 45/54/131 54/65/132 52/63/133
f 52/63/134 43/52/134 45/54/134
f 54/65/132 55/66/135 53/64/136
f 53/64/136 52/63/133 54/65/132
f 56/67/137 57/68/137 58/69/137
f 58/69/138 59/70/138 56/67/138
f 57/68/139 46/55/116 49/58/115
f 49/58/115 58/69/140 57/68/139
f 51/60/141 60/71/142 58/69/143
f 58/69/144 49/58/125 51/60/124
f 60/71/145 61/72/145 59/70/145
f 59/70/146 58/69/146 60/71/146
f 62/73/147 63/74/147 64/75/147
f 64/76/148 65/77/148 62/78/148
f 63/74/149 56/67/149 59/70/149
f 59/70/150 64/75/150 63/74/150
f 61/79/151 66/80/151 64/76/151
f 64/75/152 59/70/152 61/72/152
f 66/80/153 67/81/153 65/77/153
f 65/77/154 64/76/154 66/80/154
f 61/79/155 60/82/156 68/83/157
f 68/83/157 66/80/158 61/79/155
f 60/82/142 51/61/141 53/64/159
f 53/64/160 68/83/161 60/82/162
f 55/66/163 69/84/163 68/83/163
f 68/83/161 53/64/160 55/66/164
f 69/84/165 67/81/165 66/80/165
f 66/80/166 68/83/166 69/84/166
f 70/85/167 71/86/168 72/87/169
f 72/87/169 73/88/170 70/85/167
f 71/86/171 74/89/171 75/90/171
f 75/90/172 72/87/172 71/86/172
f 15/18/30 14/17/29 72/87/173
f 72/87/174 75/90/174 15/18/174
f 14/17/175 9/16/176 73/88/177
f 73/88/177 72/87/178 14/17/175
f 76/91/179 77/92/179 78/93/179
f 78/93/180 79/94/180 76/91/180
f 77/92/181 70/95/182 73/96/183
f 73/96/183 78/93/184 77/92/181
f 9/9/185 8/8/186 78/93/187
f 78/93/187 73/96/188 9/9/185
f 8/8/189 7/7/190 79/94/191
f 79/94/191 78/93/192 8/8/189
f 80/97/193 81/98/193 82/99/193
f 82/99/194 83/100/194 80/97/194
f 81/98/195 84/101/196 85/102/197
f 85/102/197 82/99/198 81/98/195
f 70/95/199 77/92/199 82/99/199
f 82/99/200 85/102/200 70/95/200
f 77/92/201 76/91/201 83/100/201
f 83/100/202 82/99/202 77/92/202
f 86/103/203 87/104/204 88/105/205
f 88/105/206 89/106/206 86/103/206
f 87/104/207 90/107/207 91/108/207
f 91/108/208 88/105/205 87/104/204
f 84/101/209 81/98/209 88/105/209
f 88/105/210 91/108/211 84/101/210
f 81/98/212 80/97/213 89/106/214
f 89/106/214 88/105/215 81/98/212
f 80/97/216 83/100/216 92/109/216
f 92/109/217 93/110/217 80/97/217
f 83/100/218 76/91/218 94/111/218
f 94/111/219 92/109/219 83/100/219
f 95/112/220 93/110/220 92/109/220
f 92/109/221 94/111/221 95/112/221
f 96/113/222 97/114/223 98/115/223
f 98/115/224 99/116/224 96/113/224
f 97/114/225 86/103/225 89/106/225
f 89/106/226 98/115/226 97/114/226
f 80/97/227 93/110/227 98/115/227
f 98/115/228 89/106/228 80/97/228
f 93/110/229 95/112/229 99/116/229
f 99/116/230 98/115/230 93/110/230
f 100/117/231 101/118/232 102/119/233
f 102/119/233 103/120/234 100/117/231
f 101/118/235 104/121/236 105/122/237
f 105/122/237 102/119/238 101/118/235
f 90/107/239 87/104/240 102/119/241
f 102/119/242 105/122/242 90/107/242
f 87/104/243 86/103/243 103/120/243
f 103/120/244 102/119/241 87/104/240
f 95/112/245 94/111/245 106/123/245
f 106/123/246 107/124/246 95/112/246
f 94/111/247 76/91/247 79/94/247
f 79/94/248 106/123/249 94/111/250
f 7/7/251 108/125/252 106/123/249
f 106/123/249 79/94/248 7/7/251
f 108/125/253 109/126/254 107/124/255
f 107/124/256 106/123/256 108/125/256
f 110/127/257 111/128/258 112/129/259
f 112/129/259 113/130/260 110/127/257
f 111/128/261 100/117/262 103/120/263
f 103/120/263 112/129/264 111/128/261
f 86/103/265 97/114/266 112/129/267
f 112/129/267 103/120/268 86/103/265
f 97/114/269 96/113/270 113/130/271
f 113/130/271 112/129/272 97/114/269
f 110/127/273 113/130/274 114/131/275
f 114/131/275 115/132/276 110/127/273
f 113/130/277 96/113/278 99/116/277
f 99/116/279 114/131/279 113/130/279
f 95/112/280 107/124/280 114/131/280
f 114/131/281 99/116/281 95/112/281
f 107/124/282 109/126/283 115/132/284
f 115/132/284 114/131/285 107/124/282
f 116/133/286 117/134/287 118/135/288
f 118/135/288 119/136/289 116/133/286
f 117/134/290 120/137/291 121/138/292
f 121/138/292 118/135/293 117/134/290
f 104/121/294 101/118/295 118/135/293
f 118/135/293 121/138/292 104/121/294
f 101/118/296 100/117/297 119/136/289
f 119/136/289 118/135/288 101/118/296
f 109/126/254 108/125/253 122/139/298
f 122/139/298 123/140/299 109/126/254
f 108/125/252 7/7/251 6/6/300
f 6/6/300 122/139/301 108/125/252
f 5/5/302 124/141/303 122/139/304
f 122/139/304 6/6/305 5/5/302
f 124/141/306 125/142/307 123/140/308
f 123/140/308 122/139/309 124/141/306
f 126/143/310 127/144/310 128/145/310
f 128/145/311 129/146/311 126/143/311
f 127/144/312 116/133/312 119/136/312
f 119/136/313 128/145/313 127/144/313
f 100/117/314 111/128/315 128/145/316
f 128/145/316 119/136/317 100/117/314
f 111/128/318 110/127/319 129/146/320
f 129/146/320 128/145/321 111/128/318
f 126/143/322 129/146/323 130/147/324
f 130/147/325 131/148/325 126/143/325
f 129/146/323 110/127/326 115/132/327
f 115/132/327 130/147/324 129/146/323
f 109/126/328 123/140/329 130/147/330
f 130/147/330 115/132/331 109/126/328
f 123/140/332 125/142/333 131/148/334
f 131/148/335 130/147/335 123/140/335
f 132/149/336 133/150/336 134/151/336
f 134/151/337 135/152/338 132/149/339
f 133/150/340 136/153/341 137/154/342
f 137/154/343 134/151/344 133/150/345
f 120/137/346 117/134/347 134/151/337
f 134/151/344 137/154/343 120/137/348
f 117/134/349 116/133/350 135/152/351
f 135/152/338 134/151/337 117/134/347
f 125/142/352 124/141/352 138/155/352
f 138/155/353 139/156/353 125/142/353
f 124/141/303 5/5/302 21/24/354
f 21/24/355 138/155/355 124/141/355
f 20/23/356 140/157/356 138/155/356
f 138/155/357 21/24/357 20/23/357
f 140/157/358 141/158/358 139/156/358
f 139/156/359 138/155/359 140/157/359
f 142/159/360 143/160/361 144/161/362
f 144/161/362 145/162/363 142/159/360
f 143/160/364 132/149/364 135/152/364
f 135/152/365 144/161/366 143/160/366
f 116/133/367 127/144/367 144/161/367
f 144/161/368 135/152/351 116/133/350
f 127/144/369 126/143/369 145/162/369
f 145/162/363 144/161/362 127/144/370
f 142/159/371 145/162/372 146/163/373
f 146/163/374 147/164/374 142/159/374
f 145/162/375 126/143/375 131/148/375
f 131/148/376 146/163/373 145/162/372
f 125/142/377 139/156/378 146/163/379
f 146/163/380 131/148/334 125/142/333
f 139/156/381 141/158/381 147/164/381
f 147/164/382 146/163/379 139/156/378
f 148/165/383 149/166/383 150/167/383
f 150/167/384 151/168/384 148/165/384
f 149/166/385 152/169/385 153/170/385
f 153/170/386 150/167/386 149/166/386
f 136/153/387 133/150/388 150/167/389
f 150/167/389 153/170/390 136/153/387
f 133/150/391 132/149/392 151/168/393
f 151/168/393 150/167/394 133/150/391
f 141/158/395 140/157/395 154/171/395
f 154/171/396 155/172/396 141/158/396
f 140/157/397 20/23/397 31/36/397
f 31/36/398 154/171/398 140/157/398
f 30/35/399 156/173/400 154/171/401
f 154/171/401 31/36/402 30/35/399
f 156/173/403 157/174/404 155/172/405
f 155/172/405 154/171/406 156/173/403
f 158/175/407 159/176/407 160/177/407
f 160/177/408 161/178/408 158/175/408
f 159/176/409 148/165/409 151/168/409
f 151/168/410 160/177/410 159/176/410
f 132/149/411 143/160/411 160/177/411
f 160/177/412 151/168/412 132/149/412
f 143/160/413 142/159/413 161/178/413
f 161/178/414 160/177/414 143/160/414
f 158/175/415 161/178/416 162/179/417
f 162/179/417 163/180/418 158/175/415
f 161/178/419 142/159/419 147/164/419
f 147/164/420 162/179/420 161/178/420
f 141/158/421 155/172/422 162/179/423
f 162/179/423 147/164/424 141/158/421
f 155/172/425 157/174/426 163/180/427
f 163/180/427 162/179/428 155/172/425
f 164/181/429 165/182/429 166/183/429
f 166/183/430 167/184/430 164/181/430
f 165/182/431 152/169/431 149/166/431
f 149/166/432 166/183/432 165/182/432
f 148/165/433 168/185/434 166/183/435
f 166/183/436 149/166/436 148/165/436
f 168/185/437 169/186/437 167/184/437
f 167/184/438 166/183/435 168/185/434
f 170/187/439 171/188/439 172/189/439
f 172/189/440 173/190/441 170/187/442
f 171/188/443 157/174/443 156/173/443
f 156/173/444 172/189/444 171/188/444
f 30/35/445 37/44/445 172/189/445
f 172/189/446 156/173/446 30/35/446
f 37/44/447 36/43/447 173/190/447
f 173/190/448 172/189/448 37/44/448
f 158/175/449 163/180/450 174/191/451
f 174/191/451 175/192/452 158/175/449
f 163/180/453 157/174/454 171/188/455
f 171/188/455 174/191/456 163/180/453
f 170/187/457 176/193/458 174/191/456
f 174/191/456 171/188/455 170/187/457
f 176/193/459 177/194/459 175/192/459
f 175/192/460 174/191/460 176/193/460
f 169/186/461 168/185/461 178/195/461
f 178/195/462 179/196/462 169/186/462
f 168/185/463 148/165/463 159/176/463
f 159/176/464 178/195/464 168/185/464
f 158/175/465 175/192/465 178/195/465
f 178/195/466 159/176/466 158/175/466
f 175/192/467 177/194/467 179/196/467
f 179/196/468 178/195/468 175/192/468
f 180/197/469 181/198/469 182/199/469
f 182/199/470 183/200/471 180/197/472
f 181/198/473 184/201/473 185/202/473
f 185/202/474 182/199/474 181/198/474
f 62/73/475 186/203/476 182/199/477
f 182/199/477 185/202/478 62/73/475
f 186/203/479 187/204/479 183/200/479
f 183/200/471 182/199/470 186/203/480
f 187/204/481 188/205/481 189/206/481
f 189/206/482 183/200/483 187/204/484
f 188/205/485 164/181/485 167/184/485
f 167/184/486 189/206/486 188/205/486
f 169/186/487 190/207/487 189/206/487
f 189/206/488 167/184/488 169/186/488
f 190/207/489 180/197/489 183/200/489
f 183/200/483 189/206/482 190/207/490
f 191/208/491 192/209/491 193/210/491
f 193/210/492 194/211/492 191/208/492
f 192/209/493 170/187/442 173/190/441
f 173/190/441 193/210/494 192/209/493
f 36/43/495 47/56/496 193/210/497
f 193/210/497 173/190/498 36/43/495
f 47/56/499 46/55/499 194/211/499
f 194/211/500 193/210/497 47/56/496
f 195/212/501 196/213/501 197/214/501
f 197/214/502 198/215/502 195/212/502
f 196/213/503 56/67/503 63/74/503
f 63/74/504 197/214/504 196/213/504
f 62/73/505 185/202/505 197/214/505
f 197/214/506 63/74/506 62/73/506
f 185/202/507 184/201/507 198/215/507
f 198/215/508 197/214/508 185/202/508
f 180/197/509 190/207/509 199/216/509
f 199/216/510 200/217/510 180/197/510
f 190/207/511 169/186/511 179/196/511
f 179/196/512 199/216/512 190/207/512
f 177/194/513 201/218/513 199/216/513
f 199/216/514 179/196/514 177/194/514
f 201/218/515 202/219/515 200/217/515
f 200/217/516 199/216/516 201/218/516
f 202/219/517 203/220/517 204/221/517
f 204/221/518 205/222/518 202/219/518
f 203/220/519 191/208/519 206/223/519
f 206/223/520 204/221/520 203/220/520
f 195/212/521 205/222/521 204/221/521
f 204/221/522 206/223/522 195/212/522
f 195/212/523 206/223/523 207/224/523
f 207/224/524 196/213/524 195/212/524
f 206/223/525 191/208/525 194/211/525
f 194/211/526 207/224/526 206/223/526
f 46/55/527 57/68/527 207/224/527
f 207/224/528 194/211/528 46/55/528
f 57/68/529 56/67/530 196/213/531
f 196/213/531 207/224/532 57/68/529
f 195/212/533 198/215/533 208/225/533
f 208/225/534 205/222/534 195/212/534
f 198/215/535 184/201/535 181/198/535
f 181/198/536 208/225/536 198/215/536
f 180/197/537 200/217/537 208/225/537
f 208/225/538 181/198/538 180/197/538
f 200/217/539 202/219/539 205/222/539
f 205/222/540 208/225/540 200/217/540
f 177/194/541 176/193/541 209/226/541
f 209/226/542 201/218/542 177/194/542
f 176/193/543 170/187/544 192/209/545
f 192/209/545 209/226/546 176/193/543
f 191/208/547 203/220/547 209/226/547
f 209/226/548 192/209/548 191/208/548
f 203/220/549 202/219/549 201/218/549
f 201/218/550 209/226/550 203/220/550
f 84/227/551 91/228/551 210/229/551
f 210/229/552 211/230/552 84/227/552
f 91/228/553 90/231/553 212/232/553
f 212/232/554 210/229/554 91/228/554
f 213/233/555 211/230/555 210/229/555
f 210/229/556 212/232/556 213/233/556
f 214/234/557 215/235/558 216/236/559
f 216/236/559 217/237/560 214/234/557
f 215/235/561 74/89/561 71/86/561
f 71/86/562 216/236/562 215/235/562
f 70/85/563 85/238/563 216/236/563
f 216/236/564 71/86/564 70/85/564
f 85/238/565 84/227/565 217/237/565
f 217/237/566 216/236/566 85/238/566
f 214/234/567 217/237/567 218/239/567
f 218/239/568 219/240/568 214/234/568
f 217/237/569 84/227/569 211/230/569
f 211/230/570 218/239/570 217/237/570
f 213/233/571 220/241/571 218/239/571
f 218/239/572 211/230/572 213/233/572
f 220/241/573 221/242/573 219/240/573
f 219/240/574 218/239/574 220/241/574
f 222/243/575 223/244/576 224/245/577
f 224/245/577 225/246/578 222/243/575
f 223/244/579 15/18/579 75/90/579
f 75/90/580 224/245/580 223/244/580
f 74/89/581 215/235/582 224/245/583
f 224/245/583 75/90/584 74/89/581
f 215/235/585 214/234/585 225/246/585
f 225/246/586 224/245/586 215/235/586
f 213/233/587 212/232/587 226/247/587
f 226/247/588 227/248/588 213/233/588
f 212/232/589 90/231/589 105/249/589
f 105/249/590 226/247/590 212/232/590
f 104/250/236 228/251/591 226/247/592
f 226/247/592 105/249/237 104/250/236
f 228/251/593 229/252/594 227/248/595
f 227/248/595 226/247/596 228/251/593
f 230/253/597 231/254/598 232/255/599
f 232/255/599 233/256/600 230/253/597
f 231/254/601 222/243/602 225/246/603
f 225/246/603 232/255/604 231/254/601
f 214/234/605 219/240/606 232/255/607
f 232/255/607 225/246/608 214/234/605
f 219/240/609 221/242/609 233/256/609
f 233/256/610 232/255/610 219/240/610
f 230/253/611 233/256/612 234/257/613
f 234/257/613 235/258/614 230/253/611
f 233/256/615 221/242/615 220/241/615
f 220/241/616 234/257/616 233/256/616
f 213/233/617 227/248/617 234/257/617
f 234/257/618 220/241/618 213/233/618
f 227/248/619 229/252/620 235/258/621
f 235/258/621 234/257/622 227/248/619
f 236/259/623 237/260/624 238/261/625
f 238/261/625 239/262/626 236/259/623
f 237/260/627 10/10/628 13/13/629
f 13/13/629 238/261/630 237/260/627
f 15/18/631 223/244/631 238/261/631
f 238/261/632 13/13/632 15/18/632
f 223/244/633 222/243/634 239/262/635
f 239/262/635 238/261/636 223/244/633
f 229/252/637 228/251/638 240/263/639
f 240/263/639 241/264/640 229/252/637
f 228/251/641 104/250/642 121/265/643
f 121/265/643 240/263/644 228/251/641
f 120/266/645 242/267/646 240/263/644
f 240/263/644 121/265/643 120/266/645
f 242/267/647 243/268/648 241/264/640
f 241/264/640 240/263/639 242/267/647
f 244/269/649 245/270/649 246/271/649
f 246/271/650 247/272/651 244/269/652
f 245/270/653 236/259/654 239/262/655
f 239/262/656 246/271/656 245/270/656
f 222/243/657 231/254/658 246/271/659
f 246/271/659 239/262/660 222/243/657
f 231/254/661 230/253/662 247/272/651
f 247/272/651 246/271/650 231/254/661
f 244/269/663 247/272/664 248/273/665
f 248/273/665 249/274/666 244/269/663
f 247/272/667 230/253/667 235/258/667
f 235/258/668 248/273/668 247/272/668
f 229/252/669 241/264/670 248/273/671
f 248/273/671 235/258/672 229/252/669
f 241/264/673 243/268/673 249/274/673
f 249/274/674 248/273/671 241/264/670
f 250/275/675 251/276/675 252/277/675
f 252/277/676 253/278/677 250/275/678
f 251/276/679 22/25/680 25/28/681
f 25/28/682 252/277/682 251/276/682
f 10/10/683 237/260/683 252/277/683
f 252/277/684 25/28/684 10/10/684
f 237/260/685 236/259/685 253/278/685
f 253/278/677 252/277/676 237/260/686
f 243/268/648 242/267/647 254/279/687
f 254/279/688 255/280/688 243/268/688
f 242/267/689 120/266/689 137/281/689
f 137/281/690 254/279/690 242/267/690
f 136/282/691 256/283/691 254/279/691
f 254/279/692 137/281/342 136/282/341
f 256/283/693 257/284/693 255/280/693
f 255/280/694 254/279/694 256/283/694
f 258/285/695 259/286/695 260/287/695
f 260/287/696 261/288/697 258/285/698
f 259/286/699 250/275/699 253/278/699
f 253/278/700 260/287/700 259/286/700
f 236/259/654 245/270/653 260/287/701
f 260/287/702 253/278/702 236/259/702
f 245/270/703 244/269/703 261/288/703
f 261/288/697 260/287/696 245/270/704
f 258/285/705 261/288/706 262/289/707
f 262/289/708 263/290/708 258/285/708
f 261/288/709 244/269/709 249/274/709
f 249/274/710 262/289/707 261/288/706
f 243/268/711 255/280/712 262/289/713
f 262/289/714 249/274/714 243/268/714
f 255/280/715 257/284/715 263/290/715
f 263/290/716 262/289/713 255/280/712
f 264/291/717 265/292/717 266/293/717
f 266/293/718 267/294/718 264/291/718
f 265/292/719 32/37/720 35/40/721
f 35/40/721 266/293/722 265/292/719
f 22/25/680 251/276/679 266/293/723
f 266/293/724 35/40/724 22/25/724
f 251/276/725 250/275/725 267/294/725
f 267/294/726 266/293/726 251/276/726
f 257/284/727 256/283/727 268/295/727
f 268/295/728 269/296/728 257/284/728
f 256/283/729 136/282/730 153/297/731
f 153/297/731 268/295/732 256/283/729
f 152/298/733 270/299/734 268/295/735
f 268/295/735 153/297/736 152/298/733
f 270/299/737 271/300/737 269/296/737
f 269/296/738 268/295/738 270/299/738
f 272/301/739 273/302/739 274/303/739
f 274/303/740 275/304/740 272/301/740
f 273/302/741 264/291/741 267/294/741
f 267/294/742 274/303/742 273/302/742
f 250/275/743 259/286/743 274/303/743
f 274/303/744 267/294/744 250/275/744
f 259/286/745 258/285/745 275/304/745
f 275/304/746 274/303/747 259/286/746
f 272/301/748 275/304/748 276/305/748
f 276/305/749 277/306/749 272/301/749
f 275/304/750 258/285/750 263/290/750
f 263/290/751 276/305/751 275/304/751
f 257/284/752 269/296/753 276/305/754
f 276/305/754 263/290/755 257/284/752
f 269/296/756 271/300/756 277/306/756
f 277/306/757 276/305/757 269/296/757
f 45/54/758 44/53/758 278/307/758
f 278/307/759 279/308/760 45/54/761
f 44/53/762 32/37/762 265/292/762
f 265/292/763 278/307/763 44/53/763
f 264/291/764 280/309/765 278/307/766
f 278/307/766 265/292/767 264/291/764
f 280/309/768 281/310/769 279/308/770
f 279/308/771 278/307/771 280/309/771
f 282/311/772 283/312/772 284/313/772
f 284/313/773 285/314/773 282/311/773
f 283/312/774 271/300/775 270/299/776
f 270/299/776 284/313/777 283/312/774
f 152/298/778 165/315/779 284/313/780
f 284/313/780 270/299/781 152/298/778
f 165/315/782 164/316/783 285/314/784
f 285/314/784 284/313/785 165/315/782
f 286/317/786 287/318/786 288/319/786
f 288/319/787 289/320/787 286/317/787
f 287/318/788 281/310/788 280/309/788
f 280/309/789 288/319/790 287/318/791
f 264/291/792 273/302/793 288/319/790
f 288/319/790 280/309/789 264/291/792
f 273/302/794 272/301/794 289/320/794
f 289/320/795 288/319/795 273/302/795
f 286/317/796 289/320/796 290/321/796
f 290/321/797 291/322/797 286/317/797
f 289/320/798 272/301/798 277/306/798
f 277/306/799 290/321/800 289/320/800
f 271/300/801 283/312/801 290/321/801
f 290/321/802 277/306/802 271/300/802
f 283/312/803 282/311/803 291/322/803
f 291/322/804 290/321/804 283/312/804
f 187/323/805 186/324/805 292/325/805
f 292/325/806 293/326/806 187/323/806
f 186/324/807 62/78/807 294/327/807
f 294/327/808 292/325/808 186/324/808
f 295/328/809 296/329/809 292/325/809
f 292/325/810 294/327/810 295/328/810
f 296/329/811 297/330/811 293/326/811
f 293/326/812 292/325/812 296/329/812
f 55/66/813 54/65/813 298/331/813
f 298/331/814 299/332/814 55/66/814
f 54/65/815 45/54/761 279/308/760
f 279/308/816 298/331/816 54/65/816
f 281/310/817 300/333/817 298/331/817
f 298/331/818 279/308/770 281/310/769
f 300/333/819 301/334/819 299/332/819
f 299/332/820 298/331/820 300/333/820
f 297/330/821 302/335/821 303/336/821
f 303/336/822 293/326/822 297/330/822
f 302/335/823 282/311/823 285/314/823
f 285/314/824 303/336/824 302/335/824
f 164/316/825 188/337/825 303/336/825
f 303/336/826 285/314/826 164/316/826
f 188/337/827 187/323/827 293/326/827
f 293/326/828 303/336/828 188/337/828
f 295/328/829 294/327/829 304/338/829
f 304/338/830 305/339/830 295/328/830
f 294/327/831 62/78/832 65/77/833
f 65/77/833 304/338/834 294/327/831
f 67/81/835 306/340/835 304/338/835
f 304/338/836 65/77/836 67/81/836
f 306/340/837 307/341/837 305/339/837
f 305/339/838 304/338/838 306/340/838
f 286/317/839 291/322/839 308/342/839
f 308/342/840 309/343/840 286/317/840
f 291/322/841 282/311/842 302/335/843
f 302/335/843 308/342/844 291/322/841
f 297/330/845 310/344/845 308/342/845
f 308/342/846 302/335/846 297/330/846
f 310/344/847 311/345/847 309/343/847
f 309/343/848 308/342/848 310/344/848
f 67/81/849 69/84/849 312/346/849
f 312/346/850 306/340/850 67/81/850
f 69/84/851 55/66/851 299/332/851
f 299/332/852 312/346/852 69/84/852
f 301/334/853 313/347/853 312/346/853
f 312/346/854 299/332/854 301/334/854
f 313/347/855 307/341/856 306/340/857
f 306/340/857 312/346/858 313/347/855
f 307/341/859 313/347/859 314/348/859
f 314/348/860 315/349/861 307/341/860
f 313/347/862 301/334/862 316/350/862
f 316/350/863 314/348/863 313/347/863
f 311/345/864 315/349/864 314/348/864
f 314/348/865 316/350/865 311/345/865
f 311/345/866 310/344/866 317/351/866
f 317/351/867 315/349/867 311/345/867
f 310/344/868 297/330/868 296/329/868
f 296/329/869 317/351/869 310/344/869
f 295/328/870 305/339/870 317/351/870
f 317/351/871 296/329/871 295/328/871
f 305/339/872 307/341/872 315/349/872
f 315/349/873 317/351/873 305/339/873
f 301/334/874 300/333/874 318/352/874
f 318/352/875 316/350/875 301/334/875
f 300/333/876 281/310/876 287/318/876
f 287/318/877 318/352/877 300/333/877
f 286/317/878 309/343/878 318/352/878
f 318/352/879 287/318/879 286/317/879
f 309/343/880 311/345/881 316/350/882
f 316/350/882 318/352/883 309/343/880
